<svg width="680" height="680" viewBox="0 0 680 680" fill="none" xmlns="http://www.w3.org/2000/svg">
<path d="M635.392 371.96H629.748V370.994C629.744 368.359 628.696 365.832 626.832 363.969C624.969 362.105 622.442 361.056 619.806 361.053H615.985C613.347 361.053 610.817 362.1 608.95 363.964C607.084 365.828 606.033 368.356 606.03 370.994V371.96H600.399C599.647 371.958 598.901 372.105 598.206 372.392C597.51 372.679 596.879 373.101 596.347 373.633C595.815 374.165 595.393 374.797 595.106 375.492C594.819 376.188 594.672 376.933 594.674 377.686V403.77C594.674 405.289 595.277 406.745 596.351 407.819C597.424 408.893 598.881 409.496 600.399 409.496H635.392C636.909 409.492 638.364 408.888 639.437 407.815C640.51 406.742 641.114 405.288 641.118 403.77V377.686C641.118 376.167 640.514 374.711 639.441 373.637C638.367 372.563 636.911 371.96 635.392 371.96ZM608.75 370.994C608.753 369.078 609.517 367.241 610.874 365.887C612.23 364.533 614.068 363.773 615.985 363.773H619.806C621.722 363.773 623.559 364.534 624.913 365.888C626.267 367.242 627.028 369.079 627.028 370.994V371.96H608.75V370.994Z" fill="#41484D"/>
<path d="M628.32 388.062H621.112V380.868H614.666V388.062H607.458V394.522H614.666V401.717H621.112V394.522H628.32V388.062Z" fill="white"/>
<path d="M624.24 216.512C623.119 216.512 622.009 216.291 620.974 215.862C619.938 215.432 618.998 214.803 618.206 214.01C617.414 213.216 616.786 212.275 616.358 211.239C615.93 210.202 615.711 209.092 615.713 207.971V184.96C615.711 183.839 615.93 182.729 616.358 181.693C616.786 180.656 617.414 179.715 618.206 178.922C618.998 178.128 619.938 177.499 620.974 177.07C622.009 176.64 623.119 176.419 624.24 176.419C625.361 176.419 626.471 176.64 627.506 177.07C628.542 177.499 629.483 178.128 630.275 178.922C631.067 179.715 631.694 180.656 632.122 181.693C632.55 182.729 632.769 183.839 632.767 184.96V207.93C632.774 209.055 632.559 210.169 632.134 211.21C631.709 212.251 631.082 213.198 630.289 213.995C629.496 214.793 628.554 215.426 627.516 215.858C626.478 216.29 625.364 216.512 624.24 216.512Z" fill="white" stroke="#41484D" stroke-linecap="round" stroke-linejoin="round"/>
<path d="M624.24 216.512C623.119 216.512 622.009 216.291 620.974 215.861C619.938 215.432 618.998 214.803 618.206 214.009C617.414 213.216 616.786 212.275 616.358 211.238C615.93 210.202 615.711 209.092 615.713 207.971V196.479H632.767V207.971C632.769 209.092 632.55 210.202 632.122 211.238C631.694 212.275 631.067 213.216 630.275 214.009C629.483 214.803 628.542 215.432 627.506 215.861C626.471 216.291 625.361 216.512 624.24 216.512Z" fill="#41484D" stroke="#41484D" stroke-linecap="round" stroke-linejoin="round"/>
<path d="M581.345 182.621C580.644 181.745 580.123 180.739 579.812 179.661C579.501 178.584 579.405 177.455 579.532 176.34C579.658 175.226 580.004 174.147 580.548 173.166C581.093 172.185 581.826 171.322 582.705 170.625L600.617 156.237C602.39 154.827 604.651 154.178 606.902 154.433C609.154 154.688 611.212 155.826 612.625 157.597C614.035 159.368 614.683 161.626 614.428 163.876C614.173 166.125 613.035 168.181 611.265 169.592L593.341 183.967C592.465 184.667 591.46 185.188 590.383 185.499C589.306 185.811 588.178 185.906 587.064 185.781C585.95 185.656 584.871 185.313 583.89 184.77C582.909 184.228 582.044 183.497 581.345 182.621Z" fill="white" stroke="#41484D" stroke-linecap="round" stroke-linejoin="round"/>
<path d="M581.345 182.621C580.644 181.745 580.123 180.739 579.812 179.662C579.501 178.584 579.405 177.455 579.532 176.34C579.658 175.226 580.004 174.147 580.548 173.166C581.093 172.186 581.826 171.322 582.705 170.626L591.668 163.431L602.344 176.746L593.381 183.926C592.507 184.635 591.501 185.164 590.422 185.482C589.342 185.8 588.21 185.902 587.091 185.78C585.973 185.659 584.889 185.317 583.903 184.775C582.916 184.233 582.047 183.501 581.345 182.621Z" fill="#41484D" stroke="#41484D" stroke-linecap="round" stroke-linejoin="round"/>
<path d="M496.06 120.006C494.997 120.007 493.96 120.34 493.095 120.958L473.28 105.577C474.251 103.779 474.707 101.749 474.596 99.7085C474.486 97.6685 473.814 95.6987 472.654 94.0167L484.758 78.5399C485.783 78.9349 486.907 78.9916 487.965 78.7017C489.024 78.4117 489.963 77.7904 490.643 76.9287C491.323 76.067 491.71 75.0102 491.746 73.9129C491.782 72.8157 491.466 71.7356 490.844 70.8309C490.222 69.9262 489.327 69.2444 488.289 68.8853C487.252 68.5262 486.127 68.5087 485.079 68.8353C484.03 69.1619 483.114 69.8154 482.465 70.7003C481.815 71.5852 481.465 72.6548 481.467 73.7527C481.461 74.8107 481.789 75.8437 482.405 76.7039L470.628 91.7863C469.049 90.4564 467.13 89.5928 465.087 89.2925C463.044 88.9923 460.958 89.2671 459.063 90.0862C457.168 90.9053 455.538 92.2364 454.357 93.9299C453.176 95.6235 452.49 97.6127 452.377 99.6743H438.614C438.463 98.4526 437.88 97.3254 436.969 96.4976C436.058 95.6698 434.88 95.1963 433.649 95.1631C432.419 95.13 431.218 95.5395 430.263 96.3171C429.309 97.0948 428.666 98.1889 428.45 99.4008C428.234 100.613 428.46 101.862 429.087 102.921C429.714 103.98 430.701 104.779 431.867 105.173C433.033 105.567 434.302 105.529 435.443 105.066C436.583 104.604 437.52 103.747 438.083 102.653H452.635C453.061 104.63 454.018 106.454 455.403 107.928C456.787 109.403 458.548 110.471 460.495 111.02C462.442 111.568 464.502 111.575 466.453 111.04C468.403 110.505 470.171 109.449 471.566 107.984L491.273 123.311C490.884 124.333 490.832 125.453 491.125 126.507C491.418 127.561 492.041 128.493 492.901 129.168C493.762 129.843 494.816 130.225 495.909 130.258C497.003 130.292 498.078 129.974 498.978 129.353C499.878 128.732 500.556 127.839 500.912 126.805C501.269 125.77 501.285 124.65 500.959 123.605C500.633 122.561 499.982 121.649 499.101 121.001C498.219 120.354 497.154 120.005 496.06 120.006Z" fill="#41484D"/>
<path d="M93.5406 216.675C91.8934 216.671 90.3146 216.015 89.1498 214.851C87.985 213.686 87.329 212.107 87.3254 210.46V158.78H99.7558V210.46C99.7558 212.108 99.101 213.689 97.9354 214.855C96.7699 216.02 95.189 216.675 93.5406 216.675Z" fill="white" stroke="#41484D" stroke-linecap="round" stroke-linejoin="round"/>
<path d="M93.5406 216.675C91.8934 216.672 90.3146 216.016 89.1498 214.851C87.985 213.686 87.329 212.107 87.3254 210.46V178.677H99.7558V210.46C99.7558 212.108 99.101 213.689 97.9354 214.855C96.7699 216.02 95.189 216.675 93.5406 216.675Z" fill="#41484D" stroke="#41484D" stroke-linecap="round" stroke-linejoin="round"/>
<path d="M101.538 155.761H85.5576V160.29H101.538V155.761Z" fill="white" stroke="#41484D" stroke-linecap="round" stroke-linejoin="round"/>
<path d="M74.7047 216.675C73.0574 216.671 71.4787 216.015 70.3139 214.851C69.1491 213.686 68.4931 212.107 68.4895 210.46V158.78H80.9199V210.46C80.9199 212.108 80.2651 213.689 79.0995 214.855C77.9339 216.02 76.3531 216.675 74.7047 216.675Z" fill="white" stroke="#41484D" stroke-linecap="round" stroke-linejoin="round"/>
<path d="M74.7047 216.675C73.0574 216.672 71.4787 216.016 70.3139 214.851C69.1491 213.686 68.4931 212.107 68.4895 210.46V178.677H80.9199V210.46C80.9199 212.108 80.2651 213.689 79.0995 214.855C77.9339 216.02 76.3531 216.675 74.7047 216.675Z" fill="#41484D" stroke="#41484D" stroke-linecap="round" stroke-linejoin="round"/>
<path d="M82.7014 155.761H66.7214V160.29H82.7014V155.761Z" fill="white" stroke="#41484D" stroke-linecap="round" stroke-linejoin="round"/>
<path d="M254.021 104.815L258.971 92.9286C259.055 92.7371 259.195 92.5751 259.372 92.4636C259.549 92.3521 259.755 92.2962 259.964 92.303C260.174 92.3134 260.375 92.3882 260.54 92.5172C260.706 92.6462 260.828 92.8231 260.889 93.0238L266.886 112.798L271.456 98.2326C271.519 98.0276 271.645 97.8477 271.816 97.7183C271.986 97.5889 272.194 97.5166 272.408 97.5118C272.62 97.5175 272.825 97.5849 272.999 97.7057C273.173 97.8265 273.308 97.9954 273.387 98.1918L275.93 105.509H289.68C292.494 102.568 294.13 98.696 294.277 94.6286C294.303 90.8293 292.925 87.1543 290.406 84.3094C287.888 81.4645 284.407 79.6503 280.633 79.2152C276.859 78.7801 273.057 79.7547 269.957 81.952C266.858 84.1493 264.679 87.4142 263.84 91.1198C262.976 87.4402 260.79 84.2065 257.697 82.0338C254.604 79.861 250.821 78.9008 247.066 79.3357C243.312 79.7706 239.848 81.5703 237.334 84.3925C234.82 87.2147 233.43 90.8625 233.43 94.6422C233.582 98.4091 234.995 102.016 237.442 104.883L254.021 104.815Z" fill="#41484D"/>
<path d="M275.209 107.549C274.998 107.549 274.791 107.484 274.618 107.363C274.445 107.241 274.314 107.068 274.244 106.869L272.476 101.782L267.838 116.565C267.772 116.774 267.642 116.956 267.466 117.085C267.29 117.215 267.078 117.285 266.859 117.286C266.64 117.285 266.427 117.213 266.253 117.081C266.079 116.948 265.953 116.763 265.893 116.552L259.76 96.3286L255.68 106.229C255.602 106.414 255.472 106.572 255.305 106.684C255.138 106.795 254.942 106.855 254.741 106.855H239.088C242.447 110.609 246.636 113.927 249.764 117.014C254.497 121.693 259.134 126.534 263.962 131.049C270.15 124.943 276.379 118.809 282.513 112.703C284.213 111.003 286.062 109.317 287.776 107.549H275.209Z" fill="#41484D"/>
<path d="M45.7891 411.527L52.4578 413.84L59.6735 393.038L53.0049 390.724L45.7891 411.527Z" fill="white" stroke="#41484D" stroke-miterlimit="10"/>
<path d="M42.6276 414.829L52.9197 418.399L54.279 414.48L43.987 410.91L42.6276 414.829Z" fill="white" stroke="#41484D" stroke-miterlimit="10"/>
<path d="M45.6515 396.078L62.1367 401.796L75.2088 364.11L58.7236 358.392L45.6515 396.078Z" fill="white" stroke="#41484D" stroke-miterlimit="10"/>
<path d="M53.6672 379.956L65.8352 384.177L73.0509 363.375L60.8829 359.154L53.6672 379.956Z" fill="#41484D" stroke="#41484D" stroke-miterlimit="10"/>
<path d="M51.515 395.036L58.1836 397.349L65.3993 376.547L58.7307 374.234L51.515 395.036Z" fill="#41484D" stroke="#41484D" stroke-miterlimit="10"/>
<path d="M44.4876 395.683L63.3242 402.216L64.9599 397.501L46.1233 390.967L44.4876 395.683Z" fill="white" stroke="#41484D" stroke-miterlimit="10"/>
<path d="M62.7432 357.606L72.5598 361.011L74.7392 354.728L64.9226 351.323L62.7432 357.606Z" fill="white" stroke="#41484D" stroke-miterlimit="10"/>
<path d="M57.1475 359.171L75.9841 365.705L77.6198 360.99L58.7832 354.456L57.1475 359.171Z" fill="white" stroke="#41484D" stroke-miterlimit="10"/>
<path d="M69.9312 352.172L77.8192 329.406" stroke="#41484D" stroke-miterlimit="10"/>
<path d="M508.504 635.12C547.809 635.12 579.673 627.935 579.673 619.072C579.673 610.209 547.809 603.024 508.504 603.024C469.199 603.024 437.335 610.209 437.335 619.072C437.335 627.935 469.199 635.12 508.504 635.12Z" fill="#41484D" stroke="#41484D" stroke-linecap="round" stroke-linejoin="round"/>
<path d="M453.628 256.333C453.628 256.333 443.999 262.222 444.108 264.806C444.217 267.39 440.518 314.514 440.096 320.402C439.674 326.291 434.071 338.45 433.636 343.971C433.201 349.493 434.588 355.028 436.206 357.571C437.825 360.114 443.768 368.247 443.768 368.247L459.748 343.563C460.14 338.173 460.222 332.765 459.993 327.366C459.748 315.602 453.628 256.333 453.628 256.333Z" fill="white" stroke="#41484D" stroke-linecap="round" stroke-linejoin="round"/>
<path d="M515.114 139.563C515.114 139.563 498.114 138.475 488.43 150.266C478.747 162.058 480.828 180.091 480.76 185.626C480.692 191.162 464.25 207.386 466.072 213.996C467.894 220.606 472.736 221.354 471.186 226.875C469.635 232.397 459.517 235.715 460.986 242.719C462.454 249.723 467.786 259.651 467.786 259.651L565.706 260.318C565.706 260.318 569.201 250.009 565.474 242.27C561.748 234.532 556.458 231.975 557.314 228.29C558.171 224.604 562.904 215.764 561.082 209.141C559.259 202.518 552.922 200.682 552.255 188.89C551.589 177.099 549.848 157.61 540.491 148.09C531.134 138.57 515.114 139.563 515.114 139.563Z" fill="#41484D" stroke="#41484D" stroke-linecap="round" stroke-linejoin="round"/>
<path d="M485.003 593.953C481.996 599.747 478.346 605.185 474.123 610.164C467.867 617.168 461.802 620.854 462.006 624.539C462.21 628.225 475.864 628.946 483.086 626.362C490.307 623.778 495.557 618.623 497.012 618.202C498.467 617.78 502.534 618.202 502.629 613.034C502.724 607.866 501.935 593.15 501.935 593.15L485.003 593.953Z" fill="white" stroke="#41484D" stroke-linecap="round" stroke-linejoin="round"/>
<path d="M483.058 626.361C490.294 623.777 495.53 618.623 496.985 618.201C498.44 617.78 502.506 618.201 502.602 613.033C502.602 610.313 502.452 604.873 502.262 600.426C501.191 602.433 499.608 604.12 497.672 605.315C495.737 606.509 493.519 607.169 491.246 607.226C491.246 607.226 491.11 604.642 487.166 600.236C484.622 597.353 482.052 599.624 480.556 601.596L479.346 603.418L479.25 603.595C477.681 605.911 475.963 608.123 474.11 610.218C467.854 617.222 461.788 620.908 461.992 624.593C462.196 628.279 475.837 628.945 483.058 626.361Z" fill="white" stroke="#41484D" stroke-linecap="round" stroke-linejoin="round"/>
<path d="M535.391 593.926C539.046 599.741 543.284 605.168 548.039 610.123C555.043 617.114 561.503 620.786 561.639 624.472C561.775 628.157 548.257 628.891 540.75 626.321C533.243 623.751 527.449 618.596 525.967 618.229C524.484 617.862 520.431 618.229 519.792 613.088C519.153 607.947 518.351 593.205 518.351 593.205L535.391 593.926Z" fill="white" stroke="#41484D" stroke-linecap="round" stroke-linejoin="round"/>
<path d="M540.804 626.321C533.31 623.75 527.503 618.596 526.021 618.229C524.538 617.861 520.486 618.229 519.846 613.088C519.506 610.368 519.126 604.928 518.84 600.467C520.098 602.461 521.826 604.117 523.872 605.288C525.918 606.459 528.22 607.111 530.577 607.185C530.577 607.185 530.441 604.601 533.882 600.181C536.126 597.312 538.941 599.569 540.682 601.541C541.13 602.14 541.593 602.738 542.042 603.364L542.164 603.541C543.992 605.853 545.944 608.064 548.012 610.164C555.016 617.154 561.476 620.826 561.612 624.512C561.748 628.197 548.311 628.891 540.804 626.321Z" fill="white" stroke="#41484D" stroke-linecap="round" stroke-linejoin="round"/>
<path d="M455.423 399.568C455.423 399.568 457.695 476.15 460.714 491.246C463.733 506.342 477.211 592.865 477.211 592.865C481.33 594.608 485.766 595.479 490.239 595.422H504.968L506.328 530.985L506.831 437.458L514.216 595.775C514.216 595.775 534.507 596.496 536.697 596.129C538.887 595.762 540.709 595.395 540.709 595.395L553.751 495.231L561.218 428.591L561.626 402.084C561.626 402.084 499.283 399.922 481.168 398.453C463.053 396.984 455.6 396.617 455.6 396.617L455.423 399.568Z" fill="#2247F2" stroke="#41484D" stroke-linecap="round" stroke-linejoin="round"/>
<path d="M539.607 534.779C539.444 536.058 539.281 537.241 539.091 538.329" stroke="#41484D" stroke-linecap="round" stroke-linejoin="round"/>
<path d="M541.28 442.585C541.28 442.585 542.545 497.148 540.328 526.769" stroke="#41484D" stroke-linecap="round" stroke-linejoin="round"/>
<path d="M474.436 438.206C474.436 438.206 476 474.3 477.55 482.392" stroke="#41484D" stroke-linecap="round" stroke-linejoin="round"/>
<path d="M532.549 415.208V442.762C536.079 443.712 539.689 444.336 543.334 444.625C548.923 444.992 559.354 444.625 559.354 444.625L560.102 434.194L532.549 415.208Z" fill="#41484D" stroke="#41484D" stroke-linecap="round" stroke-linejoin="round"/>
<path d="M456.579 436.424C456.579 436.424 470.737 440.898 476.694 441.266C482.65 441.633 488.226 442.381 488.226 442.381L487.492 434.942L455.831 431.963L456.579 436.424Z" fill="#41484D" stroke="#41484D" stroke-linecap="round" stroke-linejoin="round"/>
<path d="M499.555 227.215L488.444 239.741L457.626 262.222L464.195 398.48C464.195 398.48 488.757 405.09 509.837 406.926C530.917 408.762 558.022 403.934 558.022 403.934L554.037 261.134C554.037 261.134 542.042 243.454 535.894 238.68C529.747 233.907 526.932 229.487 518.786 228.752C510.639 228.018 499.555 227.215 499.555 227.215Z" fill="#2247F2" stroke="#41484D" stroke-linecap="round" stroke-linejoin="round"/>
<path d="M486.662 233.92L453.628 256.401L458.81 339.238L457.055 347.562L443.17 363.555L449.086 391.653L446.447 431.297C446.447 431.297 459.571 435.717 468.466 436.805C475.088 437.515 481.743 437.882 488.403 437.906L489.546 383.778C489.546 383.778 493.939 293.923 494.455 289.938C494.972 285.954 499.555 227.378 499.555 227.378L486.662 233.92Z" fill="white" stroke="#41484D" stroke-linecap="round" stroke-linejoin="round"/>
<path d="M487.193 237.306L471.199 277.413L488.458 284.58L472.165 287.545L486.594 344.08" stroke="#41484D" stroke-linecap="round" stroke-linejoin="round"/>
<path d="M496.781 216.539C496.781 216.539 502.52 254.823 507.035 263.663C511.55 272.503 512.829 275.441 512.829 275.441C512.829 275.441 522.648 245.602 524.62 241.182C526.592 236.762 528.7 220.932 528.7 220.932C528.7 220.932 509.13 227.202 496.781 216.539Z" fill="white" stroke="#41484D" stroke-linecap="round" stroke-linejoin="round"/>
<path d="M496.781 216.539C496.781 216.539 497.298 220.021 498.141 225.121C501.01 227.311 508.613 232.723 514.23 233.009C518.514 233.227 523.954 230.452 527.571 228.235C528.224 224.223 528.673 220.932 528.673 220.932C528.673 220.932 509.13 227.202 496.781 216.539Z" fill="#41484D" stroke="#41484D" stroke-linecap="round" stroke-linejoin="round"/>
<path d="M488.988 190.074C488.988 190.074 485.071 184.498 482.433 190.074C479.794 195.65 486.513 203.905 488.39 205.034C493.721 208.202 492.306 202.314 492.306 202.314L488.988 190.074Z" fill="white" stroke="#41484D" stroke-linecap="round" stroke-linejoin="round"/>
<path d="M537.635 192.481C537.635 192.481 540.94 186.715 544.177 192.155C547.414 197.595 541.579 206.149 539.839 207.359C534.861 210.8 535.65 204.898 535.65 204.898L537.635 192.481Z" fill="white" stroke="#41484D" stroke-linecap="round" stroke-linejoin="round"/>
<path d="M488.063 185.15C488.063 185.15 502.262 181.832 509.415 177.602C513.797 174.956 517.618 171.477 520.662 167.362C520.662 167.362 526.81 178.976 532.222 183.682C537.635 188.387 538.764 188.659 538.764 188.659C538.764 188.659 536.166 208.991 533.229 216.063C530.291 223.135 520.703 230.017 511.754 228.031C506.668 226.916 497.855 223.244 495.298 217.056C492.742 210.868 488.063 185.15 488.063 185.15Z" fill="white" stroke="#41484D" stroke-linecap="round" stroke-linejoin="round"/>
<path d="M524.294 200.777C519.887 200.886 505.131 200.913 497.515 196.316C494.463 194.539 491.605 192.447 488.988 190.074C489.26 191.434 489.586 193.134 489.94 194.902L491.599 196.112L495.761 211.834L493.816 212.255C494.226 213.862 494.721 215.447 495.298 217.002C497.855 223.19 506.668 226.862 511.754 227.977C520.69 229.949 530.25 223.108 533.215 216.05C532.516 214.678 532.309 213.108 532.63 211.603C533.487 207.155 534.548 199.363 534.548 199.363L537.581 196.643C537.744 195.65 537.88 194.698 538.016 193.827C534.344 196.371 527.462 200.695 524.294 200.777Z" fill="#2247F2" stroke="#41484D" stroke-linecap="round" stroke-linejoin="round"/>
<path d="M508.096 194.208C508.096 194.208 503.35 188.442 497.121 188.972" stroke="#41484D" stroke-linecap="round" stroke-linejoin="round"/>
<path d="M520.323 195.351C521.837 193.758 523.718 192.561 525.802 191.864C527.886 191.167 530.109 190.991 532.277 191.352" stroke="#41484D" stroke-linecap="round" stroke-linejoin="round"/>
<path d="M494.387 186.089C494.387 186.089 501.187 183.369 507.212 184.647" stroke="#41484D" stroke-linecap="round" stroke-linejoin="round"/>
<path d="M520.88 186.13C522.672 185.214 524.701 184.872 526.694 185.15C528.686 185.427 530.545 186.31 532.019 187.68" stroke="#41484D" stroke-linecap="round" stroke-linejoin="round"/>
<path d="M503.526 192.318C503.557 192.527 503.546 192.74 503.495 192.945C503.443 193.149 503.351 193.342 503.225 193.511C503.099 193.681 502.94 193.823 502.758 193.931C502.577 194.039 502.376 194.11 502.166 194.14C501.741 194.092 501.35 193.884 501.072 193.558C500.794 193.233 500.65 192.813 500.67 192.386C500.638 192.176 500.647 191.963 500.698 191.757C500.749 191.552 500.841 191.358 500.967 191.189C501.094 191.019 501.253 190.876 501.436 190.769C501.618 190.661 501.821 190.591 502.03 190.563C502.455 190.614 502.844 190.823 503.121 191.148C503.398 191.473 503.543 191.891 503.526 192.318Z" fill="#41484D"/>
<path d="M528.156 194.086C528.193 194.296 528.186 194.51 528.137 194.718C528.087 194.925 527.996 195.119 527.869 195.29C527.742 195.461 527.581 195.604 527.396 195.71C527.212 195.816 527.008 195.884 526.796 195.908C526.372 195.864 525.981 195.658 525.702 195.335C525.424 195.011 525.28 194.594 525.3 194.167C525.264 193.958 525.27 193.743 525.32 193.536C525.369 193.329 525.46 193.134 525.587 192.963C525.715 192.792 525.876 192.65 526.06 192.543C526.244 192.437 526.449 192.37 526.66 192.345C527.084 192.39 527.476 192.595 527.754 192.918C528.032 193.242 528.176 193.66 528.156 194.086Z" fill="#41484D"/>
<path d="M564.781 248.526C564.781 248.526 572.71 252.198 575.661 258.046C578.612 263.894 602.208 327.257 602.099 332.044C601.99 336.831 594.184 342.353 586.867 343.101C579.55 343.849 568.888 330.589 567.297 328.386C565.706 326.182 565.42 300.397 565.42 300.397L564.781 248.526Z" fill="white" stroke="#41484D" stroke-linecap="round" stroke-linejoin="round"/>
<path d="M527.408 231.608L531.27 358.279L532.63 438.179C540.036 440 547.622 440.98 555.247 441.103C561.607 441.236 567.93 440.108 573.852 437.784C573.852 437.784 571.54 388.076 571.132 379.971C570.724 371.865 568.031 356.402 568.031 356.402L564.822 248.527C564.822 248.527 534.942 234.546 527.408 231.608Z" fill="white" stroke="#41484D" stroke-linecap="round" stroke-linejoin="round"/>
<path d="M535.895 238.598L549.59 283.274L537.105 286.661L549.25 292.55L534.099 340.68" fill="white"/>
<path d="M535.895 238.598L549.59 283.274L537.105 286.661L549.25 292.55L534.099 340.68" stroke="#41484D" stroke-linecap="round" stroke-linejoin="round"/>
<path d="M545.442 279.467L528.455 360.849C528.455 360.849 540.07 364.521 548.556 364.929C557.043 365.337 574.723 365.283 574.723 365.283L592.403 289.422C592.403 289.422 557.6 286.09 545.442 279.467Z" fill="#41484D" stroke="#41484D" stroke-linecap="round" stroke-linejoin="round"/>
<path d="M551.358 355.314L551.915 329.882L565.393 332.724C565.393 332.724 556.485 352.349 551.358 355.314Z" fill="white" stroke="#41484D" stroke-linecap="round" stroke-linejoin="round"/>
<path d="M561.68 320.688C561.68 320.688 558.09 315.547 556.934 314.432C555.778 313.317 550.066 310.026 548.964 310.026C547.862 310.026 541.946 309.658 540.804 309.658C539.662 309.658 538.37 312.242 539.539 313.344C540.709 314.446 544.775 314.813 544.775 314.813L547.563 318.893L534.983 317.791C534.983 317.791 532.889 320.008 533.365 321.871C533.721 323.133 534.176 324.366 534.725 325.557C534.677 328.261 534.818 330.965 535.146 333.649C535.636 335.866 537.866 336.6 540.926 338.436C543.986 340.272 554.227 339.17 554.227 339.17H558.96L561.68 320.688Z" fill="white" stroke="#41484D" stroke-linecap="round" stroke-linejoin="round"/>
<path d="M592.348 323.245L559.708 318.852C559.708 318.852 557.165 339.85 554.594 346.841C552.024 353.831 551.358 355.314 551.358 355.314C551.358 355.314 585.562 354.552 593.626 353.818C601.691 353.083 606.22 348.282 605.866 341.659C605.513 335.036 601.474 328.399 601.474 328.399" fill="white"/>
<path d="M592.348 323.245L559.708 318.852C559.708 318.852 557.165 339.85 554.594 346.841C552.024 353.831 551.358 355.314 551.358 355.314C551.358 355.314 585.562 354.552 593.626 353.818C601.691 353.083 606.22 348.282 605.866 341.659C605.513 335.036 601.474 328.399 601.474 328.399" stroke="#41484D" stroke-linecap="round" stroke-linejoin="round"/>
<path d="M456.239 346.175C456.239 346.175 463.855 350.948 465.759 352.431C467.663 353.913 467.826 363.474 469.037 365.31C470.247 367.146 468.819 368.261 466.616 368.261C464.413 368.261 461.081 361.271 461.081 361.271L460.945 358.687L445.386 363.855L441.306 356.864C441.306 356.864 445.93 346.175 456.239 346.175Z" fill="white" stroke="#41484D" stroke-linecap="round" stroke-linejoin="round"/>
<path d="M342.897 635.12C382.202 635.12 414.066 627.935 414.066 619.072C414.066 610.209 382.202 603.024 342.897 603.024C303.591 603.024 271.728 610.209 271.728 619.072C271.728 627.935 303.591 635.12 342.897 635.12Z" fill="#41484D" stroke="#41484D" stroke-linecap="round" stroke-linejoin="round"/>
<path d="M398.48 237.714C398.48 237.714 407.809 284.539 409.469 293.202C411.128 301.866 414.174 322.456 417.629 331.486C421.083 340.517 419.954 352.077 418.227 355.327C416.495 358.152 414.505 360.811 412.284 363.27L400.697 348.16C400.697 348.16 393.801 274.122 393.543 263.636C393.285 253.15 398.48 237.714 398.48 237.714Z" fill="white" stroke="#41484D" stroke-linecap="round" stroke-linejoin="round"/>
<path d="M404.627 346.31C404.627 346.31 411.971 350.894 413.263 352.838C414.555 354.783 415.48 357.258 414.474 359.366C413.467 361.474 407.986 367.839 406.599 369.077C405.212 370.314 404.042 365.378 403.879 361.134C403.716 356.891 404.627 346.31 404.627 346.31Z" fill="white" stroke="#41484D" stroke-linecap="round" stroke-linejoin="round"/>
<path d="M365.133 603.079C365.133 603.079 388.158 614.271 389.613 616.447C391.068 618.623 385.818 621.52 372.096 621.52C358.374 621.52 357.966 619.711 352.512 618.27C347.058 616.828 336.192 617.903 334.723 614.652C333.254 611.402 335.811 600.209 335.811 600.209L365.133 603.079Z" fill="white" stroke="#41484D" stroke-linecap="round" stroke-linejoin="round"/>
<path d="M334.56 608.859C334.56 608.859 353.6 620.419 351.927 624.39C350.254 628.361 336.491 628.361 329.242 627.273C321.994 626.185 306.585 616.393 305.769 612.83C304.953 609.267 306.993 603.799 318.158 602.725C329.324 601.651 334.56 608.859 334.56 608.859Z" fill="white" stroke="#41484D" stroke-linecap="round" stroke-linejoin="round"/>
<path d="M392.36 419.968C392.36 419.968 381.48 503.757 379.589 516.038C377.699 528.319 371.701 547.822 368.465 562.632C366.63 571.342 365.268 580.145 364.385 589.002C364.054 591.521 364.114 594.077 364.561 596.577C365.024 600.195 365.092 603.078 365.092 603.078C360.249 604.293 355.321 605.139 350.349 605.608C344.216 605.975 335.906 605.975 335.906 605.975L333.186 582.501C333.186 582.501 335.213 547.822 336.409 537.717C337.606 527.612 338.885 448.147 338.83 445.971C338.776 443.795 338.3 424.66 338.3 424.66L375.36 420.689C375.36 420.689 380.419 406.245 388.021 406.966C395.624 407.687 392.36 419.968 392.36 419.968Z" fill="white" stroke="#41484D" stroke-linecap="round" stroke-linejoin="round"/>
<path d="M388.076 406.966C380.473 406.245 375.414 420.689 375.414 420.689L338.313 424.66C338.313 424.66 338.436 429.746 338.558 434.969C342.516 435.322 346.174 435.526 349.302 435.526C361.189 435.507 373.066 434.84 384.88 433.527L386.471 416.881L388.96 433.84L390.674 433.282C391.734 425.204 392.414 419.941 392.414 419.941C392.414 419.941 395.678 407.687 388.076 406.966Z" fill="#41484D" stroke="#41484D" stroke-linecap="round" stroke-linejoin="round"/>
<path d="M299.608 422.498C299.608 422.498 299.608 423.014 299.69 423.953C300.193 433.826 303.185 491.042 304.096 501.595C305.116 513.155 300.016 525.79 300.274 536.262C300.533 546.734 302.994 603.446 302.994 603.446L305.714 612.83C305.714 612.83 312.106 608.505 318.24 608.505C324.374 608.505 334.56 608.858 334.56 608.858C334.56 608.858 335.09 601.27 335.036 598.754C334.982 596.238 334.75 587.194 334.75 587.194C334.75 587.194 345.127 539.879 345.753 535.908C346.378 531.937 354.43 463.311 354.375 461.108C354.321 458.905 356.075 428.237 356.075 428.237L299.608 422.498Z" fill="white" stroke="#41484D" stroke-linecap="round" stroke-linejoin="round"/>
<path d="M355.694 435.458C355.926 431.27 356.089 428.278 356.089 428.278L299.608 422.498C299.608 422.498 299.608 423.014 299.69 423.953C299.69 425.15 299.839 427.04 299.975 429.393C313.181 431.759 336.097 435.486 349.302 435.486C351.478 435.526 353.6 435.499 355.694 435.458Z" fill="#41484D" stroke="#41484D" stroke-linecap="round" stroke-linejoin="round"/>
<path d="M341.224 200.736C341.224 200.736 335.254 201.742 332.982 204.408C330.706 207.001 328.659 209.785 326.862 212.731C326.55 213.737 291.434 235.049 291.434 235.049L293.964 336.668C293.964 336.668 295.011 352.321 293.148 357.653C290.001 368.135 288.473 379.036 288.619 389.98C288.946 402.968 289.789 423.98 289.789 423.98C289.789 423.98 329.977 431.977 349.302 431.977C361.19 431.948 373.066 431.272 384.88 429.95L386.471 413.29L388.892 430.29L397.147 427.57L403.947 377.25C403.947 377.25 408.68 366.588 408.626 364.249C408.571 361.909 409.822 358.917 408.449 356.918C407.075 354.919 404.627 350.921 404.627 350.921C404.627 350.921 398.48 240.72 398.48 237.714C398.48 234.709 380.297 217.069 378.95 216.403C377.604 215.737 369.308 203.401 358.55 200.083C347.793 196.765 341.224 200.736 341.224 200.736Z" fill="white" stroke="#41484D" stroke-linecap="round" stroke-linejoin="round"/>
<path d="M330.276 216.063L326.25 252.661L342.788 260.345L338.653 272.762L380.011 345.44" stroke="#41484D" stroke-linecap="round" stroke-linejoin="round"/>
<path d="M376.475 220.17L388.878 249.125L383.561 256.21L392.428 268.614L388.878 348.391" stroke="#41484D" stroke-linecap="round" stroke-linejoin="round"/>
<path d="M339.687 205.741C339.989 212.881 341.284 219.944 343.536 226.726C347.113 236.722 370.817 305.687 370.817 305.687L386.145 359.652C386.145 359.652 384.118 304.681 384.064 302.355C384.009 300.03 372.449 223.72 372.449 223.72C372.449 223.72 370.477 211.398 367.363 206.734C364.249 202.069 343.373 193.406 339.687 205.741Z" fill="#7A24E9" stroke="#41484D" stroke-linecap="round" stroke-linejoin="round"/>
<path d="M338.218 200.41C338.218 200.41 328.576 201.402 330.276 216.063C331.976 230.724 334.22 240.72 334.22 240.72" stroke="#41484D" stroke-width="2" stroke-linecap="round" stroke-linejoin="round"/>
<path d="M333.037 260.046C333.037 260.046 337.117 277.032 339.905 281.697C342.693 286.362 351.125 291.026 357.122 291.026" stroke="#41484D" stroke-linecap="round" stroke-linejoin="round"/>
<path d="M345.93 256.047C345.93 256.047 350.418 275.699 351.166 279.371C351.914 283.043 349.438 290.02 345.277 297.051" stroke="#41484D" stroke-linecap="round" stroke-linejoin="round"/>
<path d="M344.08 299.377C343.652 299.141 343.334 298.746 343.197 298.277C343.059 297.808 343.113 297.304 343.346 296.874L343.822 296.004C343.939 295.796 344.096 295.613 344.284 295.467C344.473 295.321 344.689 295.213 344.919 295.151C345.15 295.089 345.39 295.074 345.627 295.106C345.863 295.138 346.091 295.216 346.297 295.338C346.725 295.573 347.043 295.968 347.183 296.436C347.323 296.904 347.273 297.408 347.045 297.84L346.569 298.697C346.452 298.906 346.294 299.091 346.105 299.238C345.915 299.386 345.699 299.495 345.467 299.559C345.235 299.622 344.993 299.638 344.755 299.607C344.517 299.576 344.288 299.498 344.08 299.377Z" fill="#41484D"/>
<path d="M359.353 291.393C359.353 291.633 359.305 291.871 359.211 292.091C359.117 292.312 358.98 292.512 358.807 292.678C358.634 292.844 358.43 292.974 358.206 293.059C357.982 293.145 357.743 293.184 357.503 293.175H356.51C356.021 293.164 355.555 292.961 355.214 292.61C354.873 292.259 354.684 291.788 354.688 291.298C354.686 291.059 354.732 290.822 354.825 290.601C354.917 290.381 355.053 290.181 355.225 290.015C355.396 289.848 355.6 289.718 355.823 289.632C356.046 289.547 356.285 289.507 356.524 289.517H357.517C358.006 289.531 358.471 289.734 358.814 290.084C359.156 290.434 359.349 290.904 359.353 291.393Z" fill="#41484D"/>
<path d="M333.064 261.378L330.779 246.894C330.524 245.401 330.848 243.866 331.684 242.603C332.52 241.34 333.806 240.443 335.281 240.094C336.869 239.733 338.536 240.002 339.931 240.844C341.326 241.686 342.34 243.035 342.761 244.61L346.664 259.026" stroke="#41484D" stroke-width="2" stroke-linecap="round" stroke-linejoin="round"/>
<path d="M386.823 271.167C390.096 270.839 392.444 267.514 392.066 263.74C391.688 259.965 388.727 257.172 385.454 257.5C382.181 257.827 379.833 261.153 380.211 264.927C380.589 268.701 383.55 271.495 386.823 271.167Z" fill="white" stroke="#41484D" stroke-linecap="round" stroke-linejoin="round"/>
<path d="M370.097 206.516C370.097 206.516 383.193 224.944 387.369 262.507" stroke="#41484D" stroke-width="2" stroke-linecap="round" stroke-linejoin="round"/>
<path d="M387.717 266.856C389.504 266.69 390.796 264.864 390.602 262.777C390.408 260.69 388.802 259.134 387.014 259.3C385.227 259.466 383.935 261.292 384.129 263.379C384.323 265.465 385.929 267.022 387.717 266.856Z" fill="white" stroke="#41484D" stroke-linecap="round" stroke-linejoin="round"/>
<path d="M406.858 349.18C406.054 351.669 405.396 354.203 404.886 356.769C404.886 357.857 404.627 361.107 402.084 360.373C399.541 359.638 400.302 346.65 400.629 345.209C400.955 343.767 407.143 348.432 407.143 348.432" fill="white"/>
<path d="M406.858 349.18C406.054 351.669 405.396 354.203 404.886 356.769C404.886 357.857 404.627 361.107 402.084 360.373C399.541 359.638 400.302 346.65 400.629 345.209C400.955 343.767 407.143 348.432 407.143 348.432" stroke="#41484D" stroke-linecap="round" stroke-linejoin="round"/>
<path d="M324.305 337.674C326.568 338.92 329.095 339.605 331.677 339.674C335.675 339.674 342.978 338.314 345.657 339.007C348.337 339.701 355.177 348.323 355.177 348.323C355.177 348.323 357.217 350.322 356.252 351.329C355.286 352.335 353.314 354.049 351.954 352.988C350.594 351.927 343.794 346.324 343.794 346.324L326.645 353.328L319.6 349.656L324.305 337.674Z" fill="white" stroke="#41484D" stroke-linecap="round" stroke-linejoin="round"/>
<path d="M298.044 232.723C298.044 232.723 286.742 234.083 284.825 237.048C282.907 240.013 251.94 308.013 252.008 311.018C252.076 314.024 313.929 362.698 313.929 362.698L327.284 337.28L293.869 306.299L308.366 272.653" fill="white"/>
<path d="M298.044 232.723C298.044 232.723 286.742 234.083 284.825 237.048C282.907 240.013 251.94 308.013 252.008 311.018C252.076 314.024 313.929 362.698 313.929 362.698L327.284 337.28L293.869 306.299L308.366 272.653" stroke="#41484D" stroke-linecap="round" stroke-linejoin="round"/>
<path d="M318.893 374.979L351.56 375.646L351.397 355.327" stroke="#41484D" stroke-linecap="round" stroke-linejoin="round"/>
<path d="M326.686 353.328L318.05 356.551" stroke="#41484D" stroke-linecap="round" stroke-linejoin="round"/>
<path d="M336.532 186.075C336.532 186.075 340.245 215.07 342.693 219.395C345.141 223.72 362.549 241.046 362.549 241.046C362.549 241.046 367.989 221.068 368.601 216.403C369.213 211.738 369.689 193.079 369.689 193.079L336.464 183.75L336.532 186.075Z" fill="white" stroke="#41484D" stroke-linecap="round" stroke-linejoin="round"/>
<path d="M336.532 186.075C336.532 186.075 336.967 189.475 337.633 194.113C340.237 196.538 343.213 198.53 346.446 200.015C350.73 201.906 362.154 202.966 369.376 202.123C369.566 197.241 369.689 193.079 369.689 193.079L336.464 183.75L336.532 186.075Z" fill="#41484D" stroke="#41484D" stroke-linecap="round" stroke-linejoin="round"/>
<path d="M326.903 160.766C326.903 160.766 322.456 156.101 320.253 161.418C318.049 166.736 322.973 174.746 325.597 175.086C327.155 175.289 328.737 175.174 330.249 174.746C330.249 174.746 332.112 182.417 333.825 184.742C337.198 189.007 341.52 192.425 346.446 194.725C352.512 197.445 372.817 198.41 375.387 194.725C377.957 191.039 377.808 171.401 377.767 169.742C377.726 168.082 377.441 144.337 377.441 144.337C377.441 144.337 379.263 136.095 376.788 130.424C374.313 124.753 349.465 116.824 343.223 120.102C336.981 123.379 329.786 129.091 329.297 136.422C328.807 143.752 329.106 155.747 329.106 155.747L326.903 160.766Z" fill="white" stroke="#41484D" stroke-linecap="round" stroke-linejoin="round"/>
<path d="M363.623 150.429C363.623 150.429 367.771 169.469 366.819 171.754C365.867 174.039 362.889 174.08 359.162 172.081C355.436 170.081 357.381 167.416 357.381 167.416" stroke="#41484D" stroke-linecap="round" stroke-linejoin="round"/>
<path d="M349.18 172.421C349.18 172.421 350.975 177.412 354.307 177.752C357.639 178.092 366.003 178.745 366.003 178.745" stroke="#41484D" stroke-linecap="round" stroke-linejoin="round"/>
<path d="M337.28 151.096L337.81 159.093C337.81 159.093 340.857 160.766 347.847 160.766C354.838 160.766 357.136 159.093 357.136 159.093L356.946 151.096C356.946 151.096 346.8 145.098 337.28 151.096Z" stroke="#41484D" stroke-linecap="round" stroke-linejoin="round"/>
<path d="M363.65 151.096L366.18 159.433C366.18 159.433 367.214 160.793 374.218 160.793C381.222 160.793 383.52 159.12 383.52 159.12L383.316 151.123C383.316 151.123 373.157 145.098 363.65 151.096Z" stroke="#41484D" stroke-linecap="round" stroke-linejoin="round"/>
<path d="M356.986 151.096H363.65" stroke="#41484D" stroke-linecap="round" stroke-linejoin="round"/>
<path d="M337.321 151.096L324.183 158.766" stroke="#41484D" stroke-linecap="round" stroke-linejoin="round"/>
<path d="M340.558 147.098C340.558 147.098 344.121 143.099 352.199 146.431" stroke="#41484D" stroke-linecap="round" stroke-linejoin="round"/>
<path d="M364.874 147.098C366.074 146.135 367.521 145.531 369.049 145.355C370.577 145.18 372.124 145.439 373.51 146.105" stroke="#41484D" stroke-linecap="round" stroke-linejoin="round"/>
<path d="M349.071 154.768C349.071 156.237 348.541 157.488 347.806 157.488C347.072 157.488 346.446 156.291 346.446 154.768C346.446 153.245 346.977 152.048 347.725 152.048C348.473 152.048 349.044 153.285 349.071 154.768Z" fill="#41484D"/>
<path d="M370.396 154.428C370.396 155.897 369.866 157.148 369.131 157.148C368.397 157.148 367.771 155.951 367.771 154.428C367.771 152.905 368.302 151.708 369.036 151.708C369.77 151.708 370.355 152.959 370.396 154.428Z" fill="#41484D"/>
<path d="M347.575 123.61C347.575 123.61 350.785 130.696 346.8 133.28C345.57 133.991 344.175 134.366 342.754 134.366C341.333 134.366 339.938 133.991 338.708 133.28C339.767 134.743 340.359 136.493 340.405 138.299C340.451 140.105 339.95 141.883 338.966 143.398C337.013 146.653 334.734 149.701 332.166 152.497C332.166 152.497 332.887 161.106 331.391 162.112C329.895 163.118 325.815 161.609 325.747 159.079C325.679 156.55 324.047 151.49 323.979 148.961C323.911 146.431 322.741 139.849 322.741 139.849C322.741 139.849 312.514 135.293 317.941 129.73C323.367 124.168 334.886 119.612 334.886 119.612C334.886 119.612 335.145 109.494 342.149 106.461C349.153 103.428 364.221 98.8719 364.344 103.931C364.536 106.535 364.068 109.145 362.984 111.52C362.984 111.52 375.618 111.017 384.431 119.68C393.244 128.343 392.945 136.381 388.389 136.381C383.833 136.381 382.35 137.387 382.35 137.387C382.35 137.387 391.068 142.446 386.58 144.976C382.092 147.506 377.468 144.473 377.468 144.473C377.468 144.473 379.399 140.937 373.714 136.313C368.029 131.689 347.575 123.61 347.575 123.61Z" fill="#41484D" stroke="#41484D" stroke-linecap="round" stroke-linejoin="round"/>
<path d="M175.005 635.12C214.31 635.12 246.174 627.935 246.174 619.072C246.174 610.209 214.31 603.024 175.005 603.024C135.699 603.024 103.836 610.209 103.836 619.072C103.836 627.935 135.699 635.12 175.005 635.12Z" fill="#41484D" stroke="#41484D" stroke-linecap="round" stroke-linejoin="round"/>
<path d="M221.87 287.137V300.139L240.774 308.802C240.774 308.802 242.746 300.139 241.169 284.771L221.87 287.137Z" fill="#C1C7CE" stroke="#41484D" stroke-linecap="round" stroke-linejoin="round"/>
<path d="M128.044 599.135C123.717 602.849 119.629 606.832 115.804 611.062C110.364 617.195 109.303 623.302 114.363 626.226C119.422 629.15 127.364 628.388 136.027 622.975C144.691 617.563 144.337 615.387 149.396 613.591C154.455 611.796 157.706 608.151 157.706 602.385C157.706 596.619 139.278 595.884 135.307 595.585C131.335 595.286 128.044 599.135 128.044 599.135Z" fill="white" stroke="#41484D" stroke-linecap="round" stroke-linejoin="round"/>
<path d="M157.665 602.385C157.665 602.385 149.505 606.002 145.547 609.294C141.59 612.585 133.702 624.43 124.481 624.43C119.785 624.435 115.167 623.231 111.071 620.935C111.077 622.03 111.384 623.102 111.957 624.035C112.53 624.968 113.348 625.725 114.322 626.226C119.381 629.109 127.323 628.388 135.986 622.975C144.65 617.562 144.296 615.386 149.355 613.591C154.414 611.796 157.665 608.165 157.665 602.385Z" stroke="#41484D" stroke-linecap="round" stroke-linejoin="round"/>
<path d="M219.695 599.135C224.021 602.849 228.11 606.832 231.935 611.062C237.375 617.195 238.435 623.302 233.376 626.226C228.317 629.15 220.375 628.388 211.711 622.975C203.048 617.563 203.402 615.387 198.343 613.591C193.283 611.796 190.033 608.151 190.033 602.385C190.033 596.619 208.461 595.884 212.432 595.585C216.403 595.286 219.695 599.135 219.695 599.135Z" fill="white" stroke="#41484D" stroke-linecap="round" stroke-linejoin="round"/>
<path d="M190.074 602.385C190.074 602.385 198.234 606.002 202.191 609.294C206.149 612.585 214.037 624.43 223.258 624.43C227.953 624.435 232.571 623.231 236.667 620.935C236.661 622.03 236.355 623.102 235.782 624.035C235.209 624.968 234.391 625.725 233.417 626.226C228.358 629.109 220.415 628.388 211.752 622.975C203.089 617.562 203.443 615.386 198.383 613.591C193.324 611.796 190.074 608.165 190.074 602.385Z" stroke="#41484D" stroke-linecap="round" stroke-linejoin="round"/>
<path d="M117.572 393.992C117.572 393.992 119.734 475.252 120.822 487.179C121.91 499.107 125.12 526.184 125.12 527.68C125.12 529.176 126.915 589.084 126.915 589.084L123.665 594.524L124.753 602.113L139.196 604.996C146.418 606.438 155.815 608.614 157.257 607.172C158.698 605.731 159.066 602.834 159.786 598.863C160.507 594.891 161.949 587.656 160.507 581.89C159.066 576.123 162.316 514.706 162.683 513.264C163.05 511.823 171.36 452.499 171.36 452.499C171.36 452.499 176.8 501.269 180.744 516.066C184.688 530.863 183.274 552.908 184.715 561.571C186.157 570.235 189.054 599.502 189.421 601.664C189.788 603.827 190.495 607.104 190.495 607.104C190.495 607.104 208.556 604.575 211.806 603.119C215.102 601.905 218.484 600.942 221.925 600.236C221.925 600.236 222.999 579.646 221.558 571.336C220.507 565.497 219.902 559.587 219.749 553.656C219.749 551.127 221.558 470.955 221.558 470.955L219.749 393.299C219.749 393.299 170.993 398.358 152.211 394.74C133.43 391.123 117.939 388.96 117.939 388.96L117.572 393.992Z" fill="#2247F2" stroke="#41484D" stroke-linecap="round" stroke-linejoin="round"/>
<path d="M152.238 394.713C133.457 391.109 117.939 388.96 117.939 388.96L117.572 394.006C117.572 394.006 117.694 398.671 117.898 405.906C126.507 408.313 143.997 412.543 160.902 412.543C178.772 412.543 207.237 407.103 220.048 404.505L219.776 393.285C219.776 393.285 171.02 398.331 152.238 394.713Z" fill="#41484D" stroke="#41484D" stroke-linecap="round" stroke-linejoin="round"/>
<path d="M214.975 577.714C215.207 580.203 215.356 581.631 215.356 581.631" stroke="#41484D" stroke-linecap="round" stroke-linejoin="round"/>
<path d="M209.44 413.059C209.44 413.059 210.8 482.855 210.8 509.198C210.8 527.422 213.003 555.084 214.363 570.398" stroke="#41484D" stroke-linecap="round" stroke-linejoin="round"/>
<path d="M136.34 409.115L139.631 484.84" stroke="#41484D" stroke-linecap="round" stroke-linejoin="round"/>
<path d="M138.965 490.756V503.268" stroke="#41484D" stroke-linecap="round" stroke-linejoin="round"/>
<path d="M156.087 203.238C154.309 203.248 152.559 203.681 150.981 204.502C149.404 205.322 148.045 206.507 147.016 207.958C144.767 210.925 142.264 213.692 139.536 216.226L107.236 233.566L110.391 356.864L111.574 399.024C111.574 399.024 136.381 407.293 160.018 407.293C183.654 407.293 225.801 397.773 225.801 397.773C225.801 397.773 222.265 233.512 223.448 233.512C224.631 233.512 200.206 212.296 189.176 206.72C178.146 201.144 156.087 203.238 156.087 203.238Z" fill="#2247F2" stroke="#41484D" stroke-linecap="round" stroke-linejoin="round"/>
<path d="M146.88 218.144C146.88 218.144 159.392 241.196 164.669 251.736C169.946 262.276 179.792 277.44 179.792 277.44L196.262 233.322" stroke="#41484D" stroke-linecap="round" stroke-linejoin="round"/>
<path d="M156.128 364.358L155.489 345.957L118.32 343.794C118.32 343.794 118.687 370.886 119.408 372.354" stroke="#41484D" stroke-linecap="round" stroke-linejoin="round"/>
<path d="M156.577 377.386L156.4 372.219" stroke="#41484D" stroke-linecap="round" stroke-linejoin="round"/>
<path d="M200.641 374.49L199.553 344.162C199.553 344.162 212.555 345.236 223.394 338.014" stroke="#41484D" stroke-linecap="round" stroke-linejoin="round"/>
<path d="M144.908 271.891C146.05 275.495 149.532 277.617 152.674 276.611C155.815 275.604 157.406 271.864 156.25 268.26C155.094 264.656 151.626 262.535 148.485 263.541C145.343 264.547 143.752 268.287 144.908 271.891Z" stroke="#41484D" stroke-linecap="round" stroke-linejoin="round"/>
<path d="M145.275 208.787C145.275 208.787 141.1 224.835 150.593 268.396" stroke="#41484D" stroke-width="2" stroke-linecap="round" stroke-linejoin="round"/>
<path d="M153.517 269.892C153.237 270.456 152.801 270.928 152.261 271.252C151.721 271.576 151.099 271.738 150.469 271.719C149.84 271.7 149.229 271.501 148.709 271.145C148.189 270.79 147.783 270.292 147.537 269.712C147.292 269.132 147.218 268.494 147.325 267.873C147.431 267.252 147.714 266.675 148.138 266.21C148.563 265.745 149.112 265.411 149.721 265.249C150.33 265.087 150.972 265.103 151.572 265.295C152.436 265.651 153.125 266.333 153.489 267.194C153.853 268.055 153.863 269.024 153.517 269.892Z" stroke="#41484D" stroke-linecap="round" stroke-linejoin="round"/>
<path d="M221.871 231.2C221.871 231.2 227.773 235.539 228.167 237.116C228.562 238.694 248.649 286.743 248.649 286.743L219.504 291.04L219.899 262.671" fill="#2247F2"/>
<path d="M221.871 231.2C221.871 231.2 227.773 235.539 228.167 237.116C228.562 238.694 248.649 286.743 248.649 286.743L219.504 291.04L219.899 262.671" stroke="#41484D" stroke-linecap="round" stroke-linejoin="round"/>
<path d="M111.18 231.989C111.18 231.989 104.475 232.778 102.898 237.891C101.32 243.005 89.9097 295.011 89.9097 295.011L131.662 291.04L127.718 252.035" fill="#2247F2"/>
<path d="M111.18 231.989C111.18 231.989 104.475 232.778 102.898 237.891C101.32 243.005 89.9097 295.011 89.9097 295.011L131.662 291.04L127.718 252.035" stroke="#41484D" stroke-linecap="round" stroke-linejoin="round"/>
<path d="M191.828 206.339C191.828 206.339 202.178 212.242 203.198 226.93C204.218 241.618 203.198 245.344 203.198 245.344" stroke="#41484D" stroke-width="2" stroke-linecap="round" stroke-linejoin="round"/>
<path d="M207.876 264.153C207.876 264.153 206.951 281.52 205.061 286.538C203.17 291.557 195.69 297.5 189.761 298.452" stroke="#41484D" stroke-linecap="round" stroke-linejoin="round"/>
<path d="M194.48 262.276C194.48 262.276 193.651 282.309 193.569 286.035C193.487 289.762 197.241 296.249 202.627 302.464" stroke="#41484D" stroke-linecap="round" stroke-linejoin="round"/>
<path d="M204.171 304.646L204.329 304.518C205.07 303.917 205.184 302.829 204.583 302.088L203.821 301.148C203.22 300.407 202.132 300.294 201.391 300.894L201.233 301.023C200.492 301.624 200.378 302.711 200.979 303.452L201.742 304.392C202.342 305.133 203.43 305.247 204.171 304.646Z" fill="#41484D"/>
<path d="M187.632 299.087L187.67 299.287C187.847 300.225 188.751 300.84 189.688 300.663L190.877 300.437C191.815 300.26 192.43 299.356 192.253 298.419L192.215 298.218C192.037 297.281 191.134 296.665 190.196 296.843L189.007 297.068C188.07 297.246 187.454 298.15 187.632 299.087Z" fill="#41484D"/>
<path d="M208.08 265.472L207.686 250.879C207.649 249.357 207.046 247.903 205.995 246.802C204.944 245.7 203.52 245.03 202.001 244.922C200.388 244.802 198.793 245.326 197.564 246.378C196.336 247.431 195.574 248.927 195.446 250.539L194.222 265.336" stroke="#41484D" stroke-width="2" stroke-linecap="round" stroke-linejoin="round"/>
<path d="M241.958 298.955L232.56 296.983L199.471 291.475L153.068 282.635L142.066 277.78C142.066 277.78 131.662 264.18 130.764 262.82C129.866 261.46 118.102 266.207 118.524 268.015C118.946 269.824 120.333 287.899 121.244 289.041C122.155 290.183 132.314 290.17 132.314 290.17C132.314 290.17 180.785 313.562 182.798 314.419C210.773 326.21 224.264 326.101 229.038 326.876C233.811 327.651 236.926 325.72 239.673 322.565C242.42 319.41 241.958 298.955 241.958 298.955Z" fill="#C1C7CE" stroke="#41484D" stroke-linecap="round" stroke-linejoin="round"/>
<path d="M129.35 262.63C129.35 262.63 123.706 262.861 115.342 268.505C112.227 270.613 110.595 272.122 110.595 273.034C110.773 274.118 111.079 275.177 111.506 276.189C116.929 273.577 122.608 271.536 128.452 270.096" fill="#C1C7CE"/>
<path d="M129.35 262.63C129.35 262.63 123.706 262.861 115.342 268.505C112.227 270.613 110.595 272.122 110.595 273.034C110.773 274.118 111.079 275.177 111.506 276.189C116.929 273.577 122.608 271.536 128.452 270.096" stroke="#41484D" stroke-linecap="round" stroke-linejoin="round"/>
<path d="M131.607 277.1C131.607 277.1 116.253 280.935 113.764 281.398C111.275 281.86 110.826 279.358 110.826 278.46C110.826 277.563 111.506 276.189 114.213 274.843C116.919 273.496 130.533 269.865 130.533 269.865" fill="#C1C7CE"/>
<path d="M131.607 277.1C131.607 277.1 116.253 280.935 113.764 281.398C111.275 281.86 110.826 279.358 110.826 278.46C110.826 277.563 111.506 276.189 114.213 274.843C116.919 273.496 130.533 269.865 130.533 269.865" stroke="#41484D" stroke-linecap="round" stroke-linejoin="round"/>
<path d="M133.198 284.104C133.198 284.104 115.342 285.913 113.982 284.784C113.566 284.331 113.25 283.795 113.055 283.212C112.861 282.628 112.792 282.01 112.853 281.398L128.901 277.998" fill="#C1C7CE"/>
<path d="M133.198 284.104C133.198 284.104 115.342 285.913 113.982 284.784C113.566 284.331 113.25 283.795 113.055 283.212C112.861 282.628 112.792 282.01 112.853 281.398L128.901 277.998" stroke="#41484D" stroke-linecap="round" stroke-linejoin="round"/>
<path d="M128.221 285.002L114.444 285.682C114.444 285.682 115.11 287.722 115.804 287.939C119.068 288.746 122.393 289.278 125.746 289.531C127.944 289.603 130.135 289.83 132.301 290.211" fill="#C1C7CE"/>
<path d="M128.221 285.002L114.444 285.682C114.444 285.682 115.11 287.722 115.804 287.939C119.068 288.746 122.393 289.278 125.746 289.531C127.944 289.603 130.135 289.83 132.301 290.211" stroke="#41484D" stroke-linecap="round" stroke-linejoin="round"/>
<path d="M98.5728 294.223C98.5728 294.223 104.87 321.423 106.447 323.381C108.025 325.339 121.026 323.381 134.028 319.437C147.03 315.493 202.178 291.87 202.178 291.87L210.052 293.434C210.052 293.434 206.897 283.587 201.389 283.193C195.881 282.799 131.662 291.04 131.662 291.04L98.5728 294.223Z" fill="#C1C7CE" stroke="#41484D" stroke-linecap="round" stroke-linejoin="round"/>
<path d="M153.68 185.898C153.68 185.898 153.68 186.483 153.68 187.476C153.803 192.658 154.306 209.114 155.625 213.085C157.203 217.804 178.473 257.598 180.105 254.442C181.737 251.287 191.529 208.352 191.529 208.352V191.42C191.529 191.42 186.402 195.745 176.95 195.745C167.498 195.745 153.68 185.898 153.68 185.898Z" fill="#C1C7CE" stroke="#41484D" stroke-linecap="round" stroke-linejoin="round"/>
<path d="M185.232 209.236C187.438 207.889 189.546 206.389 191.543 204.748V191.42C191.543 191.42 186.415 195.745 176.963 195.745C167.511 195.745 153.68 185.898 153.68 185.898C153.68 185.898 153.68 186.483 153.68 187.476C153.68 189.298 153.816 192.522 153.979 196.112C154.352 196.71 154.771 197.278 155.231 197.812C157.951 200.954 170.979 208.842 174.135 209.63C177.29 210.419 181.683 211.194 185.232 209.236Z" fill="#41484D" stroke="#41484D" stroke-linecap="round" stroke-linejoin="round"/>
<path d="M200.994 163.05C200.994 163.05 207.291 159.501 207.291 166.206C207.291 172.91 201.389 180.785 201.389 180.785L200.994 163.05Z" fill="#C1C7CE" stroke="#41484D" stroke-linecap="round" stroke-linejoin="round"/>
<path d="M144.663 163.445C144.663 163.445 135.987 161.079 135.987 168.967C135.987 176.855 143.875 181.954 143.875 181.954H149.315C149.315 181.954 152.47 189.842 155.231 192.984C157.991 196.126 170.979 204.014 174.135 204.803C177.29 205.591 181.615 206.38 185.164 204.408C189.624 201.628 193.733 198.322 197.404 194.562C198.982 192.603 201.743 179.207 201.743 179.207C201.743 179.207 202.531 155.176 200.954 146.907C199.376 138.639 189.135 125.637 174.951 124.059C160.766 122.482 147.37 133.906 145.411 142.963C143.453 152.021 144.663 163.445 144.663 163.445Z" fill="#C1C7CE" stroke="#41484D" stroke-linecap="round" stroke-linejoin="round"/>
<path d="M170.258 169.755C170.258 169.755 167.538 175.263 172.23 176.841C176.922 178.419 182.866 178.024 184.049 175.658C185.232 173.291 183.26 170.544 183.26 170.544" stroke="#41484D" stroke-linecap="round" stroke-linejoin="round"/>
<path d="M165.539 179.602C165.539 179.602 175.386 187.871 188.782 179.996" stroke="#41484D" stroke-linecap="round" stroke-linejoin="round"/>
<path d="M171.047 187.082C171.047 187.082 179.33 191.815 184.838 186.293" stroke="#41484D" stroke-linecap="round" stroke-linejoin="round"/>
<path d="M166.328 165.023C167.417 165.023 168.3 163.61 168.3 161.867C168.3 160.125 167.417 158.712 166.328 158.712C165.239 158.712 164.356 160.125 164.356 161.867C164.356 163.61 165.239 165.023 166.328 165.023Z" fill="#41484D"/>
<path d="M187.599 161.473C187.599 163.214 186.715 164.628 185.627 164.628C184.539 164.628 183.655 163.268 183.655 161.473C183.655 159.678 184.539 158.331 185.627 158.331C186.715 158.331 187.599 159.732 187.599 161.473Z" fill="#41484D"/>
<path d="M160.806 157.542C160.806 157.542 162.778 154.387 170.326 155.57" stroke="#41484D" stroke-linecap="round" stroke-linejoin="round"/>
<path d="M182.471 155.965C182.471 155.965 186.021 150.443 191.542 155.965" stroke="#41484D" stroke-linecap="round" stroke-linejoin="round"/>
<path d="M200.994 146.88C200.483 144.541 199.596 142.3 198.37 140.243C197.911 142.424 197.751 144.657 197.894 146.88C198.465 149.763 200.491 153.789 200.491 155.802C200.491 157.815 200.192 165.879 201.634 164.737C201.776 164.586 201.892 164.411 201.974 164.22C202.064 158.424 201.736 152.629 200.994 146.88Z" fill="#41484D" stroke="#41484D" stroke-linecap="round" stroke-linejoin="round"/>
<path d="M181.193 130.56C183.722 130.426 186.239 130.122 188.727 129.649C184.709 126.641 179.973 124.737 174.991 124.127C160.806 122.55 147.41 133.974 145.452 143.031C143.494 152.089 144.663 163.513 144.663 163.513C144.663 163.513 147.791 165.689 148.947 163.391C150.103 161.092 148.947 157.339 150.103 153.313C151.259 149.287 152.973 147.261 153.258 144.092C153.544 140.923 151.531 136.327 152.687 133.729C153.843 131.131 161.038 126.249 165.648 127.976C170.608 129.855 175.891 130.733 181.193 130.56Z" fill="#41484D" stroke="#41484D" stroke-linecap="round" stroke-linejoin="round"/>
</svg>
