<svg width="600" height="600" viewBox="0 0 600 600" fill="none" xmlns="http://www.w3.org/2000/svg">
<path d="M144.732 372.324L134.652 374.148L132.672 363.228L120.696 365.4L122.676 376.32L112.608 378.144L114.852 390.54L124.92 388.716L126.9 399.636L138.876 397.476L136.896 386.544L146.976 384.72L144.732 372.324Z" stroke="#2247F2" stroke-linecap="round" stroke-linejoin="round"/>
<path d="M245.364 205.044L235.704 201.636L239.4 191.172L227.928 187.116L224.232 197.58L214.572 194.172L210.384 206.052L220.032 209.46L216.336 219.936L227.808 223.98L231.516 213.516L241.164 216.924L245.364 205.044Z" stroke="#2247F2" stroke-linecap="round" stroke-linejoin="round"/>
<path d="M489.012 330.108L479.964 334.896L474.768 325.08L464.004 330.768L469.2 340.584L460.152 345.372L466.044 356.508L475.092 351.72L480.288 361.524L491.052 355.836L485.856 346.02L494.904 341.232L489.012 330.108Z" stroke="#2247F2" stroke-linecap="round" stroke-linejoin="round"/>
<path d="M102.636 346.308C106.692 346.308 109.98 343.02 109.98 338.964C109.98 334.908 106.692 331.62 102.636 331.62C98.58 331.62 95.292 334.908 95.292 338.964C95.292 343.02 98.58 346.308 102.636 346.308Z" stroke="#2247F2" stroke-linecap="round" stroke-linejoin="round"/>
<path d="M217.032 240.78C217.032 241.164 216.918 241.54 216.704 241.86C216.491 242.18 216.187 242.429 215.832 242.576C215.477 242.723 215.086 242.762 214.709 242.687C214.332 242.612 213.985 242.426 213.713 242.155C213.442 241.883 213.256 241.536 213.181 241.159C213.106 240.782 213.145 240.391 213.292 240.036C213.439 239.681 213.688 239.377 214.008 239.164C214.328 238.95 214.704 238.836 215.088 238.836C215.604 238.836 216.098 239.041 216.463 239.405C216.827 239.77 217.032 240.264 217.032 240.78Z" stroke="#2247F2" stroke-linecap="round" stroke-linejoin="round"/>
<path d="M128.076 207.432C128.076 208.789 127.673 210.117 126.919 211.245C126.165 212.374 125.093 213.254 123.839 213.773C122.584 214.293 121.204 214.429 119.873 214.164C118.541 213.899 117.318 213.245 116.358 212.285C115.398 211.326 114.745 210.102 114.48 208.771C114.215 207.439 114.351 206.059 114.87 204.805C115.39 203.551 116.27 202.479 117.398 201.725C118.527 200.97 119.854 200.568 121.212 200.568C123.031 200.571 124.775 201.295 126.062 202.582C127.349 203.868 128.073 205.612 128.076 207.432Z" stroke="#2247F2" stroke-linecap="round" stroke-linejoin="round"/>
<path d="M430.512 300.408C430.512 301.177 430.284 301.929 429.857 302.568C429.43 303.207 428.822 303.706 428.112 304C427.402 304.294 426.62 304.371 425.866 304.221C425.111 304.071 424.419 303.701 423.875 303.157C423.331 302.613 422.961 301.921 422.811 301.167C422.661 300.412 422.738 299.631 423.032 298.92C423.326 298.21 423.825 297.602 424.464 297.175C425.103 296.748 425.855 296.52 426.624 296.52C427.655 296.52 428.644 296.93 429.373 297.659C430.102 298.388 430.512 299.377 430.512 300.408Z" stroke="#2247F2" stroke-linecap="round" stroke-linejoin="round"/>
<path d="M391.212 181.908C396.017 181.908 399.912 178.013 399.912 173.208C399.912 168.403 396.017 164.508 391.212 164.508C386.407 164.508 382.512 168.403 382.512 173.208C382.512 178.013 386.407 181.908 391.212 181.908Z" stroke="#2247F2" stroke-linecap="round" stroke-linejoin="round"/>
<path d="M337.644 251.412C338.1 252.096 351.864 254.844 359.004 265.224C363.158 271.187 366.643 277.59 369.396 284.316C369.396 284.316 381.336 291.42 387.456 297.276C393.576 303.132 400.872 310.908 406.5 314.988C412.128 319.068 423.708 326.808 426.624 335.868C426.624 335.868 409.26 383.424 404.352 393.936C399.444 404.448 387.336 426.756 387.336 426.756L365.736 518.52H240.444L236.172 487.044C236.172 487.044 197.772 479.508 181.728 465.444C181.728 465.444 180.216 430.644 186.924 399.6C193.632 368.556 216.444 304.008 231.9 284.292C231.9 284.292 256.584 272.484 278.364 268.692C278.364 268.692 292.5 257.52 301.752 256.332C311.004 255.144 337.644 251.412 337.644 251.412Z" fill="white"/>
<path d="M237.864 501.228C248.988 503.352 258.684 505.188 270.012 505.056C281.34 504.924 292.908 502.38 302.172 495.888C303.962 494.398 305.99 493.222 308.172 492.408C313.092 491.028 317.964 494.28 322.848 495.792C329.04 497.712 335.832 496.8 341.904 494.496C347.976 492.192 353.436 488.604 358.848 485.028C358.048 496.068 357.788 507.128 358.068 518.208L365.784 518.52L385.548 431.556C385.548 431.556 351.744 470.82 335.268 482.544L303.66 474.408C303.66 474.408 300.684 476.88 294.42 478.128C294.42 478.128 291.552 489.156 275.424 489.18C259.296 489.204 236.172 487.044 236.172 487.044L237.864 501.228Z" fill="#7A24E9"/>
<path opacity="0.5" d="M237.864 501.228C248.988 503.352 258.684 505.188 270.012 505.056C281.34 504.924 292.908 502.38 302.172 495.888C303.962 494.398 305.99 493.222 308.172 492.408C313.092 491.028 317.964 494.28 322.848 495.792C329.04 497.712 335.832 496.8 341.904 494.496C347.976 492.192 353.436 488.604 358.848 485.028C358.048 496.068 357.788 507.128 358.068 518.208L365.784 518.52L385.548 431.556C385.548 431.556 351.744 470.82 335.268 482.544L303.66 474.408C303.66 474.408 300.684 476.88 294.42 478.128C294.42 478.128 291.552 489.156 275.424 489.18C259.296 489.204 236.172 487.044 236.172 487.044L237.864 501.228Z" fill="white"/>
<path d="M205.476 338.964C205.476 338.964 190.8 410.208 191.544 434.676C191.544 434.676 211.488 429.084 225.408 434.676C225.408 434.676 201.72 432.036 191.52 442.896C181.32 453.756 212.712 482.292 275.52 476.496C275.52 476.496 288.048 480.42 294.408 478.116C294.408 478.116 292.704 489.468 275.412 489.168C258.192 488.484 207.816 488.064 181.716 465.456C181.728 465.468 178.44 399.972 205.476 338.964Z" fill="#7A24E9"/>
<path opacity="0.6" d="M205.476 338.964C205.476 338.964 190.8 410.208 191.544 434.676C191.544 434.676 211.488 429.084 225.408 434.676C225.408 434.676 201.72 432.036 191.52 442.896C181.32 453.756 212.712 482.292 275.52 476.496C275.52 476.496 288.048 480.42 294.408 478.116C294.408 478.116 292.704 489.468 275.412 489.168C258.192 488.484 207.816 488.064 181.716 465.456C181.728 465.468 178.44 399.972 205.476 338.964Z" fill="white"/>
<path d="M235.488 352.62C235.488 352.62 239.82 384.168 246.816 390.768C253.812 397.368 286.416 395.208 299.328 402.324C299.328 402.324 311.484 381.264 333.468 368.088L303.66 415.02L277.896 408.936L246.444 404.136L243.804 410.208H239.076C239.076 410.208 238.548 376.536 235.488 352.62Z" fill="#7A24E9"/>
<path opacity="0.5" d="M235.488 352.62C235.488 352.62 239.82 384.168 246.816 390.768C253.812 397.368 286.416 395.208 299.328 402.324C299.328 402.324 311.484 381.264 333.468 368.088L303.66 415.02L277.896 408.936L246.444 404.136L243.804 410.208H239.076C239.076 410.208 238.548 376.536 235.488 352.62Z" fill="white"/>
<path d="M358.716 288.36C372.192 296.292 373.704 305.232 376.476 311.616C369.468 313.008 362.22 314.496 356.436 318.684C349.236 323.916 345.336 332.58 342.312 340.992C339.451 348.952 337.047 357.069 335.112 365.304C341.625 353.537 350.884 343.517 362.1 336.096C368.568 331.824 376.56 328.38 383.94 330.792C377.748 333.42 370.74 336.972 369.432 343.572C369.175 344.667 369.22 345.812 369.564 346.884C370.668 349.992 374.532 350.832 377.46 352.344C383.172 355.284 386.148 361.944 386.4 368.4C386.652 374.856 384.672 381.096 382.716 387.204C380.996 392.556 379.276 397.908 377.556 403.26C375.36 410.1 373.128 417.036 369.156 423.036C365.184 429.036 359.22 434.064 352.128 435.24C349.163 435.812 346.094 435.464 343.332 434.244C341.238 433.106 339.292 431.715 337.536 430.104C329.028 423.233 318.803 418.818 307.968 417.336C321.912 426.552 328.512 443.292 334.296 458.976C331.64 454.327 327.813 450.454 323.196 447.744C322.012 446.92 320.606 446.476 319.164 446.472C315.372 446.772 314.172 451.608 311.892 454.632C309.156 458.232 304.152 459.516 299.664 458.94C295.176 458.364 291.048 456.264 287.016 454.14L236.004 427.836L232.404 438.636C232.404 438.636 273.036 471.036 335.292 482.496C335.292 482.496 375.732 450.54 390.06 422.208C404.388 393.876 426.648 335.808 426.648 335.808C426.648 335.808 418.5 320.376 404.532 312.324C404.532 312.324 394.104 307.392 391.908 301.296C389.712 295.2 370.116 284.676 370.116 284.676C370.116 284.676 372.66 291.18 358.716 288.36Z" fill="#7A24E9"/>
<path opacity="0.6" d="M358.716 288.36C372.192 296.292 373.704 305.232 376.476 311.616C369.468 313.008 362.22 314.496 356.436 318.684C349.236 323.916 345.336 332.58 342.312 340.992C339.451 348.952 337.047 357.069 335.112 365.304C341.625 353.537 350.884 343.517 362.1 336.096C368.568 331.824 376.56 328.38 383.94 330.792C377.748 333.42 370.74 336.972 369.432 343.572C369.175 344.667 369.22 345.812 369.564 346.884C370.668 349.992 374.532 350.832 377.46 352.344C383.172 355.284 386.148 361.944 386.4 368.4C386.652 374.856 384.672 381.096 382.716 387.204C380.996 392.556 379.276 397.908 377.556 403.26C375.36 410.1 373.128 417.036 369.156 423.036C365.184 429.036 359.22 434.064 352.128 435.24C349.163 435.812 346.094 435.464 343.332 434.244C341.238 433.106 339.292 431.715 337.536 430.104C329.028 423.233 318.803 418.818 307.968 417.336C321.912 426.552 328.512 443.292 334.296 458.976C331.64 454.327 327.813 450.454 323.196 447.744C322.012 446.92 320.606 446.476 319.164 446.472C315.372 446.772 314.172 451.608 311.892 454.632C309.156 458.232 304.152 459.516 299.664 458.94C295.176 458.364 291.048 456.264 287.016 454.14L236.004 427.836L232.404 438.636C232.404 438.636 273.036 471.036 335.292 482.496C335.292 482.496 375.732 450.54 390.06 422.208C404.388 393.876 426.648 335.808 426.648 335.808C426.648 335.808 418.5 320.376 404.532 312.324C404.532 312.324 394.104 307.392 391.908 301.296C389.712 295.2 370.116 284.676 370.116 284.676C370.116 284.676 372.66 291.18 358.716 288.36Z" fill="white"/>
<path d="M354.432 177.9C354.432 177.9 357.156 146.136 343.464 143.1C329.772 140.064 322.08 127.5 322.08 127.5L273.504 141.06L265.968 170.268L270.768 185.052C270.768 185.052 271.776 198.768 271.968 205.548C272.16 212.328 271.968 217.548 277.104 225.78C282.24 234.012 287.016 242.184 298.116 249.3V268.008C298.116 268.008 291.252 288.036 295.044 300.324C295.044 300.324 297.312 302.724 303.576 299.124C309.84 295.524 336.636 277.62 345.984 258.924L348.888 211.392C348.888 211.392 356.604 212.592 359.928 205.56C364.812 198.684 364.62 190.668 362.724 184.14C360.828 177.612 352.668 181.836 352.668 181.836L354.432 177.9Z" fill="#C1C7CE"/>
<path d="M298.644 224.472C300.018 222.976 301.71 221.809 303.597 221.057C305.483 220.305 307.514 219.988 309.54 220.128C309.54 220.128 315.384 210.9 321.54 212.592C321.54 212.592 323.436 222.372 316.056 226.224C306.456 231.228 298.644 224.472 298.644 224.472Z" fill="#71787E"/>
<path d="M280.596 137.016C280.596 137.016 268.968 152.292 269.64 168.216C270.312 184.14 272.628 195.432 271.956 207.72C271.284 220.008 284.244 240.588 297.528 248.88C307.452 255.084 319.896 254.028 329.556 247.68C340.356 240.48 346.296 227.544 348.468 215.124C348.684 213.924 348.852 212.724 348.972 211.428" stroke="#41484D" stroke-linecap="round" stroke-linejoin="round"/>
<path d="M297.528 248.892C297.528 248.892 299.412 266.1 297.528 271.992C295.452 278.46 292.944 293.52 295.128 300.324C297.312 307.128 338.172 278.532 346.068 258.912C346.068 258.912 347.16 220.788 349.884 211.26" stroke="#41484D" stroke-linecap="round" stroke-linejoin="round"/>
<path d="M296.4 224.052C296.4 224.052 314.988 229.308 322.596 210.12" stroke="#41484D" stroke-linecap="round" stroke-linejoin="round"/>
<path d="M297.9 253.032C297.9 253.032 301.86 265.308 310.404 266.04C318.948 266.772 340.32 249.648 347.604 229.476V219.384C347.604 219.384 341.604 245.784 324.036 250.584C306.468 255.384 298.248 249.276 298.248 249.276L297.9 253.032Z" fill="#41484D"/>
<path d="M321.528 212.592C313.272 212.016 309.528 220.128 309.528 220.128C307.493 219.88 305.428 220.147 303.524 220.906C301.62 221.666 299.938 222.892 298.632 224.472C300.666 226.296 303.166 227.52 305.855 228.008C308.544 228.495 311.315 228.226 313.86 227.232C323.244 223.968 321.528 212.592 321.528 212.592Z" stroke="#41484D" stroke-linecap="round" stroke-linejoin="round"/>
<path d="M300.828 176.4C300.93 180.207 300.762 184.017 300.324 187.8C299.88 191.196 298.308 194.448 297 197.64C295.8 200.544 293.796 205.008 295.464 208.068C297.36 211.536 303.66 208.068 303.66 208.068" stroke="#41484D" stroke-linecap="round" stroke-linejoin="round"/>
<path d="M307.536 207.348C309.66 207.636 312.672 207.348 313.272 203.664" stroke="#41484D" stroke-linecap="round" stroke-linejoin="round"/>
<path d="M314.4 171.816C316.453 169.857 319.182 168.764 322.02 168.764C324.858 168.764 327.586 169.857 329.64 171.816" stroke="#41484D" stroke-width="2" stroke-linecap="round" stroke-linejoin="round"/>
<path d="M290.184 174.816C290.184 174.816 284.556 167.616 277.188 174.816" stroke="#41484D" stroke-width="2" stroke-linecap="round" stroke-linejoin="round"/>
<path d="M344.556 193.02C344.556 193.02 350.976 177.6 359.352 180.912C365.124 183.204 365.472 193.164 362.412 200.112C359.352 207.06 357.816 214.14 347.616 210.18" stroke="#41484D" stroke-linecap="round" stroke-linejoin="round"/>
<path d="M345.696 190.656C345.696 190.656 339.528 188.472 338.388 178.452C337.248 168.432 343.392 158.4 341.112 151.2C338.832 144 320.868 147.6 316.776 135.048C316.776 135.048 303.288 145.104 277.176 142.944C277.176 142.944 271.668 152.328 270.708 158.064C269.422 167.032 269.455 176.141 270.804 185.1C270.804 185.412 270.912 185.712 270.972 186.024C272.844 195.792 263.52 172.728 263.772 162.876C264.024 153.024 258.084 140.508 265.824 131.184C273.564 121.86 301.944 116.4 307.536 112.02C313.128 107.64 324 119.304 336.564 123.6C349.128 127.896 359.544 133.02 357.96 150.84C356.376 168.66 358.044 171.048 358.116 180.432C358.116 180.456 352.308 178.272 345.696 190.656Z" fill="#41484D"/>
<path d="M322.044 184.8C322.044 187.2 321.12 189.192 319.968 189.192C318.816 189.192 317.904 187.224 317.904 184.8C317.904 182.376 318.828 180.42 319.968 180.42C321.108 180.42 322.044 182.4 322.044 184.8Z" fill="#41484D"/>
<path d="M290.184 184.8C290.184 187.2 289.26 189.192 288.12 189.192C286.98 189.192 286.056 187.224 286.056 184.8C286.056 182.376 286.98 180.42 288.12 180.42C289.26 180.42 290.184 182.4 290.184 184.8Z" fill="#41484D"/>
<path d="M314.4 190.656C314.4 190.656 318.684 195.204 324.108 195.852" stroke="#41484D" stroke-linecap="round" stroke-linejoin="round"/>
<path d="M285.216 195.852C285.216 195.852 293.052 195.3 294.816 190.656" stroke="#41484D" stroke-linecap="round" stroke-linejoin="round"/>
<path d="M303.432 303.24C309.264 299.532 316.98 300.924 323.364 303.552C326.868 305.004 330.204 306.828 333.696 308.352C335.422 309.115 337.203 309.749 339.024 310.248C343.404 311.388 341.832 305.952 341.58 303.516C341.22 300.024 340.968 296.52 340.548 293.052C340.376 292.334 340.46 291.578 340.788 290.916C341.219 290.382 341.821 290.013 342.492 289.872C350.184 287.472 358.476 288.528 366.492 288.672C367.22 288.758 367.957 288.62 368.604 288.276C369.804 287.496 369.672 285.732 369.348 284.34C366.576 272.484 356.796 260.688 346.164 254.76" stroke="#41484D" stroke-linecap="round" stroke-linejoin="round"/>
<path d="M298.2 256.68C292.908 258.888 287.472 261.18 282.912 264.564C281.258 265.77 279.733 267.145 278.364 268.668C277.261 269.717 276.567 271.125 276.408 272.64C276.437 273.344 276.624 274.033 276.954 274.656C277.284 275.279 277.75 275.82 278.316 276.24C279.121 276.903 280.009 277.459 280.956 277.896C283.164 278.94 285.756 279.96 286.692 282.18C286.919 282.645 287.003 283.167 286.932 283.68C286.813 284.13 286.582 284.543 286.26 284.88C284.436 287.1 281.22 288.816 281.46 291.684C281.616 293.904 283.86 295.284 285.852 296.268C287.844 297.252 290.172 298.272 290.856 300.396" stroke="#41484D" stroke-linecap="round" stroke-linejoin="round"/>
<path d="M266.868 144.156C267.648 139.356 272.664 136.26 277.488 135.48C282.312 134.7 287.268 135.48 292.128 135.06C296.193 134.658 300.124 133.389 303.655 131.337C307.187 129.286 310.237 126.5 312.6 123.168" stroke="white" stroke-linecap="round" stroke-linejoin="round"/>
<path d="M272.328 130.668C281.04 125.52 293.28 130.872 301.776 125.376C304.18 123.626 306.273 121.484 307.968 119.04" stroke="white" stroke-linecap="round" stroke-linejoin="round"/>
<path d="M383.46 327.6C352.26 333.828 340.62 356.784 340.62 356.784L303.66 414.996" stroke="#41484D" stroke-linecap="round" stroke-linejoin="round"/>
<path d="M357.084 321.312C359.673 318.914 362.605 316.916 365.784 315.384" stroke="#41484D" stroke-linecap="round" stroke-linejoin="round"/>
<path d="M335.268 365.256C335.268 365.256 339.204 344.232 350.508 328.74" stroke="#41484D" stroke-linecap="round" stroke-linejoin="round"/>
<path d="M239.076 410.112C239.076 410.112 237.456 345.708 231.876 335.868" stroke="#41484D" stroke-linecap="round" stroke-linejoin="round"/>
<path d="M369.396 284.316C369.396 284.316 387.396 295.116 395.388 305.268C403.38 315.42 422.268 322.164 426.588 335.868C426.588 335.868 401.712 414.252 375.648 442.584C349.584 470.916 335.232 482.544 335.232 482.544C335.232 482.544 272.532 471.648 231.864 437.496L246.408 404.076C246.408 404.076 287.412 409.26 303.624 415.02C319.836 420.78 335.232 455.664 335.232 455.664" stroke="#41484D" stroke-linecap="round" stroke-linejoin="round"/>
<path d="M303.66 415.02C303.66 415.02 332.364 420.6 341.688 433.668" stroke="#41484D" stroke-linecap="round" stroke-linejoin="round"/>
<path d="M386.256 428.46L365.784 518.52H240.444L236.172 487.044" stroke="#41484D" stroke-linecap="round" stroke-linejoin="round"/>
<path d="M294.42 478.128C287.496 492.312 278.364 489.18 278.364 489.18C207.744 491.856 181.728 465.468 181.728 465.468C181.728 465.468 178.128 428.352 192.012 378.264C205.896 328.176 231.9 284.316 231.9 284.316C243.432 276.648 269.16 270.66 276.42 269.076L278.364 268.668" stroke="#41484D" stroke-linecap="round" stroke-linejoin="round"/>
<path d="M278.4 489.18C278.4 489.18 274.668 488.568 275.616 463.824" stroke="#41484D" stroke-linecap="round" stroke-linejoin="round"/>
<path d="M233.808 439.08C233.808 439.08 216.168 432.864 194.316 447.984" stroke="#41484D" stroke-linecap="round" stroke-linejoin="round"/>
<path d="M198.276 433.668C198.276 433.668 221.388 426.792 231.876 437.808" stroke="#41484D" stroke-linecap="round" stroke-linejoin="round"/>
<path d="M229.38 437.184L232.38 438.684L243.804 410.148C243.804 410.148 231.972 408.216 213.228 431.556C219.081 431.624 224.752 433.6 229.38 437.184Z" fill="#C1C7CE" stroke="#41484D" stroke-miterlimit="10"/>
<path d="M275.58 463.824V476.508C275.58 476.508 291.744 481.308 303.708 474.408L275.58 463.824Z" fill="#C1C7CE" stroke="#41484D" stroke-miterlimit="10"/>
<path d="M363.192 288.54C363.204 288.774 363.179 289.009 363.12 289.236C362.616 291.216 350.292 337.74 310.848 358.44C310.505 358.624 310.121 358.719 309.732 358.716C309.196 358.716 308.675 358.536 308.253 358.205C307.831 357.874 307.532 357.411 307.403 356.891C307.275 356.37 307.324 355.821 307.544 355.332C307.764 354.843 308.141 354.442 308.616 354.192C344.616 335.316 357.3 292.296 358.404 288.336L363.192 288.54Z" fill="#41484D"/>
<path d="M278.316 276.204C272.08 290.446 268.716 305.779 268.416 321.324C268.416 322.584 268.416 323.868 268.416 325.176C268.416 325.5 268.416 325.824 268.416 326.148C268.058 326.16 267.701 326.196 267.348 326.256C266.049 326.461 264.791 326.865 263.616 327.456C263.616 325.692 263.616 323.976 263.616 322.284C264.132 295.356 272.172 277.032 276.456 269.112L278.4 268.704C277.297 269.753 276.603 271.161 276.444 272.676C276.48 273.365 276.666 274.038 276.989 274.647C277.313 275.256 277.765 275.788 278.316 276.204Z" fill="#41484D"/>
<path d="M325.572 347.616C328.38 351.516 326.076 357.996 320.412 362.088C314.748 366.18 307.884 366.324 305.064 362.424C302.244 358.524 304.548 352.044 310.212 347.952C315.876 343.86 322.8 343.716 325.572 347.616Z" fill="white" stroke="#41484D" stroke-linecap="round" stroke-linejoin="round"/>
<path d="M318.588 345.3C320.58 348.06 318.948 352.644 314.988 355.536C311.028 358.428 306.12 358.536 304.188 355.776C302.256 353.016 303.828 348.432 307.788 345.54C311.748 342.648 316.596 342.552 318.588 345.3Z" fill="white" stroke="#41484D" stroke-linecap="round" stroke-linejoin="round"/>
<path d="M286.872 394.008C286.361 394.347 285.739 394.479 285.134 394.374C284.529 394.269 283.988 393.937 283.62 393.445C283.253 392.953 283.088 392.34 283.159 391.73C283.231 391.12 283.533 390.561 284.004 390.168C284.208 390 292.26 383.148 288.732 360.072C288.432 358.116 288.048 356.028 287.532 353.832C286.008 346.836 283.656 337.98 278.844 331.476C277.699 329.76 276.131 328.369 274.292 327.435C272.453 326.502 270.404 326.059 268.344 326.148C267.986 326.16 267.629 326.196 267.276 326.256C265.977 326.461 264.718 326.865 263.544 327.456C259.959 329.307 257.238 332.485 255.96 336.312L255.528 337.512C252.807 344.87 250.582 352.403 248.868 360.06C246.948 369.48 246.3 379.356 249.708 386.256C250.621 388.149 251.922 389.829 253.526 391.187C255.13 392.545 257.002 393.551 259.02 394.14C259.562 394.318 260.022 394.683 260.319 395.17C260.616 395.657 260.73 396.233 260.641 396.796C260.551 397.36 260.264 397.873 259.831 398.243C259.397 398.614 258.846 398.818 258.276 398.82C258.023 398.819 257.772 398.779 257.532 398.7C254.908 397.912 252.475 396.588 250.389 394.811C248.303 393.035 246.608 390.845 245.412 388.38C241.572 380.616 242.076 370.044 244.02 360.06C245.743 351.849 248.078 343.778 251.004 335.916L251.436 334.716C252.379 331.86 253.959 329.255 256.057 327.099C258.155 324.944 260.715 323.293 263.544 322.272C264.523 321.932 265.531 321.683 266.556 321.528C267.168 321.444 267.756 321.384 268.38 321.348C271.189 321.27 273.972 321.899 276.475 323.176C278.978 324.452 281.121 326.336 282.708 328.656C288.06 335.856 290.604 345.372 292.224 352.836C292.788 355.404 293.22 357.816 293.544 360.096C297.336 385.968 287.34 393.672 286.872 394.008Z" fill="#41484D" stroke="#41484D" stroke-miterlimit="10"/>
<path d="M256.596 398.4C256.596 398.4 265.296 402 267.504 398.4C269.712 394.8 267.924 393.108 264.912 392.82C261.91 392.666 258.902 392.666 255.9 392.82L256.596 398.4Z" fill="#41484D" stroke="#41484D" stroke-miterlimit="10"/>
<path d="M260.592 397.2C260.435 397.681 260.13 398.1 259.721 398.398C259.311 398.695 258.818 398.855 258.312 398.856C258.059 398.855 257.808 398.815 257.568 398.736C254.944 397.948 252.511 396.624 250.425 394.847C248.339 393.071 246.644 390.881 245.448 388.416C241.608 380.652 242.112 370.08 244.056 360.096H248.856C246.936 369.516 246.288 379.392 249.696 386.292C250.609 388.185 251.91 389.865 253.514 391.223C255.118 392.581 256.99 393.587 259.008 394.176C259.312 394.269 259.594 394.421 259.838 394.624C260.082 394.826 260.284 395.076 260.431 395.357C260.579 395.638 260.669 395.946 260.696 396.262C260.724 396.579 260.688 396.897 260.592 397.2Z" fill="white" stroke="#41484D" stroke-linecap="round" stroke-linejoin="round"/>
<path d="M278.856 391.404C278.494 391.833 278.227 392.334 278.072 392.874C277.917 393.414 277.877 393.98 277.956 394.536C278.196 395.358 278.716 396.07 279.426 396.548C280.137 397.026 280.992 397.239 281.844 397.152C283.548 396.925 285.107 396.069 286.212 394.752C287.412 393.408 291.576 384.612 287.724 386.124C284.928 387.18 280.728 388.968 278.856 391.404Z" fill="#41484D" stroke="#41484D" stroke-miterlimit="10"/>
<path d="M286.872 394.008C286.361 394.348 285.739 394.479 285.134 394.374C284.529 394.269 283.987 393.937 283.62 393.445C283.253 392.954 283.088 392.34 283.159 391.73C283.231 391.121 283.533 390.561 284.004 390.168C284.208 390 292.26 383.148 288.732 360.072H293.532C297.336 385.968 287.34 393.672 286.872 394.008Z" fill="white" stroke="#41484D" stroke-linecap="round" stroke-linejoin="round"/>
<path opacity="0.2" d="M308.4 181.908C308.4 181.908 323.508 174.06 337.392 181.908C337.392 181.908 337.62 193.488 332.376 198.252C330.516 199.944 321.996 200.232 318.768 199.944C305.664 198.756 308.4 181.908 308.4 181.908Z" fill="white"/>
<path opacity="0.2" d="M298.92 181.908C298.92 181.908 283.812 174.06 269.94 181.908C269.94 181.908 269.712 193.488 274.944 198.252C276.804 199.944 285.336 200.232 288.552 199.944C301.656 198.756 298.92 181.908 298.92 181.908Z" fill="white"/>
<path d="M308.4 181.908C308.4 181.908 323.508 174.06 337.392 181.908C337.392 181.908 337.62 193.488 332.376 198.252C330.516 199.944 321.996 200.232 318.768 199.944C305.664 198.756 308.4 181.908 308.4 181.908Z" stroke="#41484D" stroke-miterlimit="10"/>
<path d="M298.92 181.908C298.92 181.908 283.812 174.06 269.94 181.908C269.94 181.908 269.712 193.488 274.944 198.252C276.804 199.944 285.336 200.232 288.552 199.944C301.656 198.756 298.92 181.908 298.92 181.908Z" stroke="#41484D" stroke-miterlimit="10"/>
<path d="M298.92 181.908C298.92 181.908 302.304 179.424 308.4 181.908" stroke="#41484D" stroke-miterlimit="10"/>
<path d="M337.392 181.908L343.704 184.836" stroke="#41484D" stroke-miterlimit="10"/>
<path d="M95.7839 550.464L140.196 508.512H492.684L519.372 550.464H95.7839Z" fill="white" stroke="#41484D" stroke-linecap="round" stroke-linejoin="round"/>
<path d="M519.372 550.464H95.7839V561.756H519.372V550.464Z" fill="#41484D" stroke="#41484D" stroke-linecap="round" stroke-linejoin="round"/>
<path d="M140.196 540.096V531.396H209.796V540.096H196.368H140.196Z" fill="white" stroke="#41484D" stroke-miterlimit="10"/>
<path d="M140.196 531.396L181.308 503.82L236.172 505.116L209.796 531.396H140.196Z" fill="white" stroke="#41484D" stroke-linecap="round" stroke-linejoin="round"/>
<path d="M209.796 540.096L236.172 513.672V505.116L209.796 531.396V540.096Z" fill="white" stroke="#41484D" stroke-linecap="round" stroke-linejoin="round"/>
<path d="M207.912 529.2C207.912 529.2 202.356 530.304 202.356 535.116C202.356 539.928 207.156 541.344 207.156 541.344" stroke="#41484D" stroke-width="2" stroke-linecap="round" stroke-linejoin="round"/>
<path d="M202.356 529.2C202.356 529.2 196.8 530.304 196.8 535.116C196.8 539.928 201.6 541.344 201.6 541.344" stroke="#41484D" stroke-width="2" stroke-linecap="round" stroke-linejoin="round"/>
<path d="M196.8 529.2C196.8 529.2 191.244 530.304 191.244 535.116C191.244 539.928 196.044 541.344 196.044 541.344" stroke="#41484D" stroke-width="2" stroke-linecap="round" stroke-linejoin="round"/>
<path d="M191.244 529.2C191.244 529.2 185.688 530.304 185.688 535.116C185.688 539.928 190.488 541.344 190.488 541.344" stroke="#41484D" stroke-width="2" stroke-linecap="round" stroke-linejoin="round"/>
<path d="M185.688 529.2C185.688 529.2 180.132 530.304 180.132 535.116C180.132 539.928 184.932 541.344 184.932 541.344" stroke="#41484D" stroke-width="2" stroke-linecap="round" stroke-linejoin="round"/>
<path d="M180.132 529.2C180.132 529.2 174.576 530.304 174.576 535.116C174.576 539.928 179.376 541.344 179.376 541.344" stroke="#41484D" stroke-width="2" stroke-linecap="round" stroke-linejoin="round"/>
<path d="M174.576 529.2C174.576 529.2 169.02 530.304 169.02 535.116C169.02 539.928 173.82 541.344 173.82 541.344" stroke="#41484D" stroke-width="2" stroke-linecap="round" stroke-linejoin="round"/>
<path d="M169.02 529.2C169.02 529.2 163.464 530.304 163.464 535.116C163.464 539.928 168.264 541.344 168.264 541.344" stroke="#41484D" stroke-width="2" stroke-linecap="round" stroke-linejoin="round"/>
<path d="M162.78 529.2C162.78 529.2 157.224 530.304 157.224 535.116C157.224 539.928 162.024 541.344 162.024 541.344" stroke="#41484D" stroke-width="2" stroke-linecap="round" stroke-linejoin="round"/>
<path d="M156.528 529.2C156.528 529.2 150.972 530.304 150.972 535.116C150.972 539.928 155.772 541.344 155.772 541.344" stroke="#41484D" stroke-width="2" stroke-linecap="round" stroke-linejoin="round"/>
<path d="M149.58 529.2C149.58 529.2 144.024 530.304 144.024 535.116C144.024 539.928 148.824 541.344 148.824 541.344" stroke="#41484D" stroke-width="2" stroke-linecap="round" stroke-linejoin="round"/>
<path d="M184.8 510.576C180.967 512.69 177.929 515.997 176.148 519.996C181.2 518.4 185.196 514.8 189.024 511.2L184.872 521.496C186.783 521.34 188.631 520.737 190.266 519.734C191.9 518.731 193.276 517.357 194.28 515.724C193.951 515.866 193.656 516.075 193.414 516.339C193.171 516.603 192.987 516.915 192.874 517.255C192.761 517.595 192.721 517.955 192.756 518.311C192.792 518.668 192.902 519.013 193.08 519.324C196.56 518.82 198.78 515.46 200.532 512.412C200.854 514.108 200.979 515.835 200.904 517.56C203.814 517.977 206.783 517.599 209.496 516.468" stroke="#41484D" stroke-width="0.75" stroke-linecap="round" stroke-linejoin="round"/>
<path d="M490.332 466.488H369.36V532.908H490.332V466.488Z" fill="white" stroke="#41484D" stroke-linecap="round" stroke-linejoin="round"/>
<path d="M368.892 532.896L349.44 514.404V447.984L368.892 466.488V532.896Z" fill="white" stroke="#41484D" stroke-linecap="round" stroke-linejoin="round"/>
<path d="M490.332 466.488L470.88 447.984H349.92L369.36 466.488H490.332Z" fill="white" stroke="#41484D" stroke-linecap="round" stroke-linejoin="round"/>
<path d="M445.848 491.4H435.156V480.216H420.084V491.4H408.42V506.472H420.084V517.644H435.156V506.472H445.848V491.4Z" fill="#7A24E9" stroke="#41484D" stroke-miterlimit="10"/>
<path d="M428.796 466.488L409.344 447.984" stroke="#41484D" stroke-linecap="round" stroke-linejoin="round"/>
<path d="M173.096 184.194C187.206 170.083 187.206 147.206 173.096 133.095C158.985 118.985 136.108 118.985 121.997 133.095C107.887 147.206 107.887 170.083 121.997 184.194C136.108 198.304 158.985 198.304 173.096 184.194Z" fill="white" stroke="#41484D" stroke-linecap="round" stroke-linejoin="round"/>
<path d="M177.6 153.108C177.6 155.527 176.841 157.885 175.432 159.85C174.022 161.815 172.031 163.289 169.74 164.064L153.6 169.5L133.956 176.136C131.062 177.088 127.91 176.857 125.186 175.494C122.461 174.131 120.386 171.746 119.413 168.86C118.439 165.973 118.645 162.819 119.987 160.084C121.329 157.35 123.697 155.256 126.576 154.26L144.42 148.26L162.348 142.26C164.083 141.677 165.931 141.514 167.741 141.784C169.55 142.055 171.27 142.751 172.758 143.816C174.246 144.881 175.46 146.285 176.3 147.91C177.139 149.536 177.581 151.338 177.588 153.168L177.6 153.108Z" fill="white"/>
<path d="M177.6 153.108C177.6 155.527 176.841 157.884 175.432 159.85C174.022 161.815 172.031 163.289 169.74 164.064L153.6 169.5C153.17 161.549 149.914 154.012 144.42 148.248L162.348 142.248C164.083 141.665 165.931 141.501 167.741 141.772C169.55 142.043 171.27 142.739 172.758 143.804C174.246 144.869 175.46 146.272 176.3 147.898C177.139 149.524 177.581 151.326 177.588 153.156L177.6 153.108Z" fill="#2247F2"/>
<path d="M177.6 153.108C177.6 155.527 176.841 157.885 175.432 159.85C174.022 161.815 172.031 163.289 169.74 164.064L153.6 169.5L133.956 176.136C131.062 177.088 127.91 176.857 125.186 175.494C122.461 174.131 120.386 171.746 119.413 168.86C118.439 165.973 118.645 162.819 119.987 160.084C121.329 157.35 123.697 155.256 126.576 154.26L144.42 148.26L162.348 142.26C164.083 141.677 165.931 141.514 167.741 141.784C169.55 142.055 171.27 142.751 172.758 143.816C174.246 144.881 175.46 146.285 176.3 147.91C177.139 149.536 177.581 151.338 177.588 153.168L177.6 153.108Z" stroke="#41484D" stroke-linecap="round" stroke-linejoin="round"/>
<path d="M153.6 169.5C153.233 161.534 149.968 153.976 144.42 148.248" stroke="#41484D" stroke-linecap="round" stroke-linejoin="round"/>
<path d="M173.736 148.8C174.494 150.077 174.876 151.541 174.84 153.024" stroke="white" stroke-linecap="round" stroke-linejoin="round"/>
<path d="M148.98 150L163.38 145.2C164.672 144.757 166.046 144.606 167.403 144.758C168.76 144.909 170.066 145.36 171.228 146.076" stroke="white" stroke-linecap="round" stroke-linejoin="round"/>
<path d="M393.051 109.627C411.428 101.849 420.021 80.6464 412.243 62.2695C404.465 43.8925 383.262 35.3002 364.885 43.0781C346.508 50.8559 337.916 72.0586 345.694 90.4356C353.472 108.813 374.674 117.405 393.051 109.627Z" fill="white" stroke="#41484D" stroke-linecap="round" stroke-linejoin="round"/>
<path d="M391.428 91.4762L359.916 80.9282C357.296 80.0473 355.133 78.1621 353.902 75.6869C352.671 73.2117 352.473 70.3491 353.352 67.7282C354.233 65.1079 356.118 62.9447 358.593 61.7138C361.069 60.483 363.931 60.2853 366.552 61.1642L398.064 71.7002C400.683 72.5837 402.844 74.4693 404.074 76.9437C405.305 79.418 405.504 82.2792 404.628 84.9002C403.747 87.5207 401.862 89.6847 399.388 90.9175C396.913 92.1503 394.051 92.3513 391.428 91.4762Z" fill="#2247F2"/>
<path d="M368.34 80.0881L373.62 67.4761" stroke="#41484D" stroke-linecap="round" stroke-linejoin="round"/>
<path d="M385.704 85.8602L390.96 73.2842" stroke="#41484D" stroke-linecap="round" stroke-linejoin="round"/>
<path d="M372.696 80.8323C373.286 80.8323 373.764 80.3541 373.764 79.7643C373.764 79.1744 373.286 78.6963 372.696 78.6963C372.106 78.6963 371.628 79.1744 371.628 79.7643C371.628 80.3541 372.106 80.8323 372.696 80.8323Z" fill="#41484D"/>
<path d="M383.196 82.9083C383.196 83.1196 383.133 83.3261 383.016 83.5017C382.899 83.6773 382.732 83.8142 382.537 83.895C382.342 83.9759 382.127 83.997 381.92 83.9558C381.713 83.9146 381.522 83.8129 381.373 83.6635C381.223 83.5142 381.122 83.3239 381.081 83.1167C381.039 82.9095 381.061 82.6948 381.141 82.4996C381.222 82.3045 381.359 82.1377 381.535 82.0203C381.71 81.903 381.917 81.8403 382.128 81.8403C382.411 81.8403 382.683 81.9529 382.883 82.1531C383.084 82.3534 383.196 82.6251 383.196 82.9083Z" fill="#41484D"/>
<path d="M376.836 71.3284C377.426 71.3284 377.904 70.8502 377.904 70.2604C377.904 69.6705 377.426 69.1924 376.836 69.1924C376.246 69.1924 375.768 69.6705 375.768 70.2604C375.768 70.8502 376.246 71.3284 376.836 71.3284Z" fill="#41484D"/>
<path d="M387.18 73.3082C387.18 73.5195 387.118 73.726 387 73.9016C386.883 74.0772 386.716 74.2141 386.521 74.2949C386.326 74.3758 386.111 74.3969 385.904 74.3557C385.697 74.3145 385.506 74.2128 385.357 74.0634C385.208 73.9141 385.106 73.7238 385.065 73.5166C385.024 73.3094 385.045 73.0947 385.125 72.8995C385.206 72.7044 385.343 72.5376 385.519 72.4202C385.694 72.3029 385.901 72.2402 386.112 72.2402C386.395 72.2402 386.667 72.3528 386.867 72.553C387.068 72.7533 387.18 73.025 387.18 73.3082Z" fill="#41484D"/>
<path d="M391.428 91.4762L359.916 80.9282C357.296 80.0473 355.133 78.1621 353.902 75.6869C352.671 73.2117 352.473 70.3491 353.352 67.7282C354.233 65.1079 356.118 62.9447 358.593 61.7138C361.069 60.483 363.931 60.2853 366.552 61.1642L398.064 71.7002C400.683 72.5837 402.844 74.4693 404.074 76.9437C405.305 79.418 405.504 82.2792 404.628 84.9002C403.747 87.5207 401.862 89.6847 399.388 90.9175C396.913 92.1503 394.051 92.3513 391.428 91.4762Z" stroke="#41484D" stroke-linecap="round" stroke-linejoin="round"/>
<path d="M242.568 110.52C262.523 110.52 278.7 94.3435 278.7 74.3883C278.7 54.4332 262.523 38.2563 242.568 38.2563C222.613 38.2563 206.436 54.4332 206.436 74.3883C206.436 94.3435 222.613 110.52 242.568 110.52Z" fill="white" stroke="#41484D" stroke-linecap="round" stroke-linejoin="round"/>
<path d="M263.268 75.312V90.12C263.268 93.876 260.868 96.924 257.928 96.924H227.208C224.256 96.924 221.868 93.876 221.868 90.12V75.312C221.868 71.556 224.268 68.508 227.208 68.508H232.26V59.916H252.66V68.508H257.892C260.868 68.508 263.268 71.556 263.268 75.312Z" fill="white" stroke="#41484D" stroke-linecap="round" stroke-linejoin="round"/>
<path d="M263.256 77.0161H221.868V86.1961H263.256V77.0161Z" fill="#2247F2" stroke="#41484D" stroke-miterlimit="10"/>
<path d="M235.08 49.8604H250.248C251.96 49.8604 253.602 50.5405 254.813 51.7513C256.024 52.962 256.704 54.6041 256.704 56.3164V63.0244H228.612V56.3164C228.612 55.4675 228.779 54.627 229.105 53.843C229.43 53.0589 229.906 52.3467 230.507 51.747C231.108 51.1474 231.821 50.6721 232.606 50.3483C233.39 50.0246 234.231 49.8588 235.08 49.8604Z" fill="#2247F2" stroke="#41484D" stroke-miterlimit="10"/>
<path d="M233.52 50.2681V63.0241" stroke="#41484D" stroke-linecap="round" stroke-linejoin="round"/>
<path d="M240.156 49.8604V63.0244" stroke="#41484D" stroke-linecap="round" stroke-linejoin="round"/>
<path d="M246.792 49.8604V63.0244" stroke="#41484D" stroke-linecap="round" stroke-linejoin="round"/>
<path d="M253.428 50.604V63.024" stroke="#41484D" stroke-linecap="round" stroke-linejoin="round"/>
<path d="M149.998 271.914C153.226 252.222 139.88 233.641 120.187 230.413C100.495 227.185 81.9144 240.532 78.6861 260.224C75.4578 279.916 88.8046 298.497 108.497 301.725C128.189 304.953 146.77 291.607 149.998 271.914Z" fill="white" stroke="#41484D" stroke-linecap="round" stroke-linejoin="round"/>
<path d="M132.671 275.39C136.606 267.068 131.195 256.254 120.585 251.237C109.974 246.219 98.1824 248.897 94.2469 257.219C90.3114 265.541 95.7226 276.355 106.333 281.373C116.944 286.39 128.735 283.712 132.671 275.39Z" fill="#2247F2" stroke="#41484D" stroke-linecap="round" stroke-linejoin="round"/>
<path d="M133.983 272.56C137.675 264.753 132.066 254.357 121.456 249.339C110.845 244.322 99.251 246.582 95.5591 254.389C91.8673 262.195 97.476 272.592 108.086 277.609C118.697 282.627 130.291 280.367 133.983 272.56Z" fill="#2247F2" stroke="#41484D" stroke-linecap="round" stroke-linejoin="round"/>
<path d="M120.9 252.792L107.784 271.236" stroke="#41484D" stroke-linecap="round" stroke-linejoin="round"/>
<path d="M113.004 249.804C114.762 250.041 116.494 250.443 118.176 251.004" stroke="white" stroke-linecap="round" stroke-linejoin="round"/>
<path d="M101.352 267.168C101.352 267.168 94.6561 259.836 101.196 252.768C102.705 251.23 104.671 250.22 106.8 249.888" stroke="white" stroke-linecap="round" stroke-linejoin="round"/>
<path d="M530.595 271.935C533.823 252.243 520.477 233.662 500.784 230.434C481.092 227.206 462.511 240.553 459.283 260.245C456.055 279.937 469.402 298.518 489.094 301.746C508.786 304.974 527.367 291.628 530.595 271.935Z" fill="white" stroke="#41484D" stroke-linecap="round" stroke-linejoin="round"/>
<path d="M515.676 269.712C515.4 270.108 515.124 270.516 514.836 270.912C509.424 278.412 501.084 285.408 494.904 286.788V286.692C488.904 285.348 480.828 278.688 475.416 271.416C475.116 271.02 474.828 270.612 474.552 270.216C469.344 262.752 467.148 254.916 472.944 251.676C484.728 245.1 494.904 259.2 494.904 259.2C494.904 259.2 505.104 245.208 516.864 251.772C522.504 254.916 520.572 262.428 515.676 269.712Z" fill="#2247F2" stroke="#41484D" stroke-miterlimit="10"/>
<path d="M515.676 269.712C515.4 270.108 515.124 270.516 514.836 270.912H511.86L508.452 275.412L506.136 262.068L502.536 271.14H494.028L489.672 278.4L486.312 263.7L481.98 271.368H475.416C475.116 270.972 474.828 270.564 474.552 270.168H481.284L486.792 260.412L490.176 275.232L493.38 269.892H501.78L506.58 257.604L509.148 272.436L511.248 269.664L515.676 269.712Z" fill="white"/>
<path d="M460.152 195.18C480.107 195.18 496.284 179.003 496.284 159.048C496.284 139.093 480.107 122.916 460.152 122.916C440.197 122.916 424.02 139.093 424.02 159.048C424.02 179.003 440.197 195.18 460.152 195.18Z" fill="white" stroke="#41484D" stroke-linecap="round" stroke-linejoin="round"/>
<path d="M457.44 142.344C457.788 143.124 455.616 144.852 452.64 146.208C449.664 147.564 446.88 148.032 446.532 147.24C446.184 146.448 448.344 144.732 451.332 143.376C454.32 142.02 457.08 141.6 457.44 142.344Z" fill="white" stroke="#41484D" stroke-linecap="round" stroke-linejoin="round"/>
<path d="M473.7 175.86L462.888 181.092L453.192 161.124L446.496 147.324L457.308 142.08L463.836 155.544L473.7 175.86Z" fill="white" stroke="#41484D" stroke-linecap="round" stroke-linejoin="round"/>
<path d="M448.5 151.44L453.192 149.268L448.5 151.44Z" fill="#2247F2"/>
<path d="M448.5 151.44L453.192 149.268" stroke="#41484D" stroke-linecap="round" stroke-linejoin="round"/>
<path d="M450.54 155.784L455.232 153.612L450.54 155.784Z" fill="#2247F2"/>
<path d="M450.54 155.784L455.232 153.612" stroke="#41484D" stroke-linecap="round" stroke-linejoin="round"/>
<path d="M467.028 179.088L472.608 186.408L469.824 177.732L467.028 179.088Z" fill="white" stroke="#41484D" stroke-linecap="round" stroke-linejoin="round"/>
<path d="M473.7 175.86C471.169 178.395 467.939 180.116 464.424 180.804L462.888 181.092L453.192 161.124L463.836 155.544L473.7 175.86Z" fill="#2247F2" stroke="#41484D" stroke-miterlimit="10"/>
<path d="M455.232 164.916L459.648 162.876" stroke="#41484D" stroke-linecap="round" stroke-linejoin="round"/>
<path d="M457.656 169.56L461.988 167.58L457.656 169.56Z" fill="#2247F2"/>
<path d="M457.656 169.56L461.988 167.58" stroke="#41484D" stroke-linecap="round" stroke-linejoin="round"/>
<path d="M450.24 145.5L446.82 137.808L449.508 136.284L453.192 144.072L450.24 145.5Z" fill="white" stroke="#41484D" stroke-linecap="round" stroke-linejoin="round"/>
<path d="M456.108 135.348L455.292 133.548L440.892 139.992L441.708 141.792C442.044 142.56 445.536 141.72 449.52 139.944C453.504 138.168 456.444 136.104 456.108 135.348Z" fill="white" stroke="#41484D" stroke-linecap="round" stroke-linejoin="round"/>
<path d="M455.292 133.548C454.956 132.792 451.452 133.62 447.48 135.396C443.508 137.172 440.556 139.236 440.892 139.992C441.228 140.748 444.732 139.92 448.704 138.132C452.676 136.344 455.628 134.304 455.292 133.548Z" fill="white" stroke="#41484D" stroke-linecap="round" stroke-linejoin="round"/>
</svg>
