<svg width="600" height="600" viewBox="0 0 600 600" fill="none" xmlns="http://www.w3.org/2000/svg">
<path d="M125.856 164.568C107.539 188.094 96.2634 216.328 93.336 246L70.8 242.712C74.3231 208.883 87.3445 176.742 108.36 150L125.856 164.568Z" stroke="#71787E" stroke-linecap="round" stroke-linejoin="round"/>
<path d="M323.028 428.028C291.383 441.715 256.491 446.097 222.444 440.658C188.397 435.219 156.606 420.185 130.8 397.32L145.908 380.28C168.478 400.26 196.274 413.396 226.04 418.148C255.807 422.9 286.311 419.072 313.98 407.112L323.028 428.028Z" stroke="#71787E" stroke-linecap="round" stroke-linejoin="round"/>
<path d="M250.968 261.732V80.5319C203.443 80.4725 157.81 99.1457 123.96 132.504L139.452 149.244L145.992 156.288L157.428 168.6L239.172 256.572L243.972 261.768L244.608 262.452L246.78 264.78L247.524 265.584L248.724 266.784L250.536 268.74L247.464 269.64L197.616 382.5C185.139 376.989 173.596 369.568 163.404 360.504L242.724 271.02L235.284 273.192L126.24 305.04L110.088 309.756L100.86 312.444L78.96 318.84C89.034 349.105 106.916 376.177 130.8 397.32L145.896 380.28C168.466 400.26 196.262 413.396 226.028 418.148C255.795 422.9 286.299 419.072 313.968 407.112L310.188 398.292L303.516 382.872C291.331 388.166 278.411 391.573 265.2 392.976L250.968 261.732ZM250.968 261.732L236.784 130.488C213.735 132.938 191.748 141.456 173.064 155.172L250.968 261.732Z" stroke="#71787E" stroke-linecap="round" stroke-linejoin="round"/>
<path d="M133.2 170.736C116.018 192.882 105.481 219.453 102.816 247.356L93.3359 246C96.2677 216.337 107.543 188.111 125.856 164.592L133.2 170.736Z" stroke="#71787E" stroke-linecap="round" stroke-linejoin="round"/>
<path d="M242.736 271.02L245.412 267.996L247.224 265.956L247.584 265.548L250.968 261.732H244.032H242.16H202.14H118.968" stroke="#71787E" stroke-linecap="round" stroke-linejoin="round"/>
<path d="M102.168 261.732H92.568H56.568" stroke="#71787E" stroke-linecap="round" stroke-linejoin="round"/>
<path d="M130.788 397.32L110.568 420.132" stroke="#71787E" stroke-linecap="round" stroke-linejoin="round"/>
<path d="M145.896 380.28L152.268 373.092L163.416 360.504" stroke="#71787E" stroke-linecap="round" stroke-linejoin="round"/>
<path d="M409.368 261.732C409.377 292.628 400.351 322.852 383.4 348.683C366.45 374.514 342.315 394.824 313.968 407.112L310.14 398.292C333.719 388.076 354.251 371.928 369.736 351.421C385.221 330.913 395.131 306.745 398.502 281.269C401.872 255.794 398.587 229.88 388.967 206.051C379.347 182.223 363.72 161.291 343.608 145.296L349.608 137.772C368.264 152.597 383.33 171.446 393.678 192.911C404.026 214.376 409.39 237.903 409.368 261.732Z" stroke="#71787E" stroke-linecap="round" stroke-linejoin="round"/>
<path d="M343.608 145.296L333.144 158.496C324.335 151.457 314.655 145.585 304.344 141.024L311.136 125.64C322.755 130.777 333.668 137.383 343.608 145.296Z" stroke="#71787E" stroke-linecap="round" stroke-linejoin="round"/>
<path d="M349.596 137.772L381.768 97.332H417.768" stroke="#71787E" stroke-linecap="round" stroke-linejoin="round"/>
<path d="M333.144 158.436L250.968 261.732" stroke="#71787E" stroke-linecap="round" stroke-linejoin="round"/>
<path d="M239.448 155.148L236.784 130.488C213.735 132.938 191.748 141.456 173.064 155.172L187.704 175.2C202.88 164.066 220.733 157.148 239.448 155.148Z" stroke="#71787E" stroke-linecap="round" stroke-linejoin="round"/>
<path d="M262.908 372.228L265.2 392.976C278.411 391.573 291.331 388.166 303.516 382.872L295.116 363.432C284.905 368.026 274.037 370.994 262.908 372.228Z" stroke="#71787E" stroke-linecap="round" stroke-linejoin="round"/>
<path d="M265.2 392.976C242.163 395.447 218.881 391.835 197.676 382.5L247.524 269.64L242.784 271.02L163.464 360.504C149.489 348.125 138.303 332.918 130.649 315.89C122.994 298.861 119.045 280.401 119.064 261.732C119.064 257.7 119.244 253.704 119.616 249.732C121.837 224.916 131.068 201.244 146.232 181.476C149.723 176.918 153.507 172.593 157.56 168.528C162.4 163.661 167.616 159.183 173.16 155.136L251.064 261.696L265.2 392.976Z" stroke="#71787E" stroke-linecap="round" stroke-linejoin="round"/>
<path d="M314.568 117.732L311.1 125.58" stroke="#71787E" stroke-linecap="round" stroke-linejoin="round"/>
<path d="M304.308 140.964L250.968 261.732" stroke="#71787E" stroke-linecap="round" stroke-linejoin="round"/>
<path d="M234.048 105.228L234.972 113.784L236.784 130.488" stroke="#71787E" stroke-linecap="round" stroke-linejoin="round"/>
<path d="M250.968 261.732L106.968 198.132" stroke="#71787E" stroke-linecap="round" stroke-linejoin="round"/>
<path d="M119.724 275.916L103.02 277.728C102.451 272.415 102.167 267.075 102.168 261.732H118.968C118.965 266.47 119.217 271.205 119.724 275.916Z" stroke="#71787E" stroke-linecap="round" stroke-linejoin="round"/>
<path d="M103.02 277.728L94.464 278.652" stroke="#71787E" stroke-linecap="round" stroke-linejoin="round"/>
<path d="M250.968 261.732L123.888 354.636" stroke="#71787E" stroke-linecap="round" stroke-linejoin="round"/>
<path d="M187.368 405.732L190.836 397.884L197.628 382.5" stroke="#71787E" stroke-linecap="round" stroke-linejoin="round"/>
<path d="M247.476 269.64L248.028 268.38L248.592 267.108L248.736 266.784L250.968 261.732" stroke="#71787E" stroke-linecap="round" stroke-linejoin="round"/>
<path d="M269.112 439.476L266.964 409.68L265.152 392.976" stroke="#71787E" stroke-linecap="round" stroke-linejoin="round"/>
<path d="M343.872 388.812L338.784 381.864L328.872 368.292" stroke="#71787E" stroke-linecap="round" stroke-linejoin="round"/>
<path d="M250.968 261.732L394.968 325.332" stroke="#71787E" stroke-linecap="round" stroke-linejoin="round"/>
<path d="M250.968 261.732L407.472 244.812" stroke="#71787E" stroke-linecap="round" stroke-linejoin="round"/>
<path d="M378.048 168.828L371.1 173.916" stroke="#71787E" stroke-linecap="round" stroke-linejoin="round"/>
<path d="M357.528 183.828L250.968 261.732" stroke="#71787E" stroke-linecap="round" stroke-linejoin="round"/>
<path d="M250.968 162.108C236.232 175.836 198.516 189.708 154.536 219.12C154.536 219.12 157.284 318.54 250.968 372.888V162.108Z" fill="#7A24E9" stroke="#41484D" stroke-linecap="round" stroke-linejoin="round"/>
<path d="M250.968 162.108C265.704 175.836 303.42 189.708 347.4 219.12C347.4 219.12 344.652 318.54 250.968 372.888V162.108Z" fill="#41484D" stroke="#41484D" stroke-linecap="round" stroke-linejoin="round"/>
<path d="M250.968 170.568C233.184 182.916 202.356 194.676 161.604 221.94C161.604 221.94 164.16 314.064 250.968 364.416C337.776 314.064 340.32 222 340.32 222C299.58 194.676 268.896 182.916 250.968 170.568Z" fill="#41484D" stroke="#41484D" stroke-linecap="round" stroke-linejoin="round"/>
<path d="M340.32 222C299.52 194.736 268.896 182.976 250.968 170.628V364.416C337.776 314.064 340.32 222 340.32 222Z" fill="#7A24E9" stroke="#41484D" stroke-linecap="round" stroke-linejoin="round"/>
<path d="M284.82 263.448H218.22C217.501 263.456 216.788 263.322 216.121 263.054C215.454 262.787 214.847 262.39 214.333 261.888C213.819 261.385 213.41 260.786 213.127 260.125C212.845 259.464 212.696 258.754 212.688 258.036V227.328C212.688 206.364 230.1 189.3 251.52 189.3C272.94 189.3 290.4 206.4 290.4 227.328V258C290.395 258.725 290.247 259.442 289.963 260.11C289.679 260.777 289.266 261.382 288.747 261.889C288.228 262.395 287.614 262.794 286.94 263.062C286.266 263.329 285.545 263.461 284.82 263.448ZM223.752 252.648H279.288V227.328C279.076 220.105 276.057 213.248 270.873 208.214C265.688 203.18 258.746 200.364 251.52 200.364C244.294 200.364 237.352 203.18 232.167 208.214C226.983 213.248 223.964 220.105 223.752 227.328V252.648Z" fill="white" stroke="#41484D" stroke-linecap="round" stroke-linejoin="round"/>
<path d="M293.364 248.652H208.572V318.792H293.364V248.652Z" fill="white" stroke="#41484D" stroke-linecap="round" stroke-linejoin="round"/>
<path d="M259.788 277.776C259.702 275.384 258.691 273.12 256.969 271.458C255.247 269.797 252.947 268.869 250.554 268.869C248.161 268.869 245.861 269.797 244.139 271.458C242.417 273.12 241.406 275.384 241.32 277.776C241.322 279.413 241.77 281.018 242.616 282.42C243.461 283.822 244.673 284.967 246.12 285.732L244.572 301.668H256.44L254.892 285.732C256.357 284.98 257.588 283.84 258.451 282.438C259.315 281.035 259.777 279.423 259.788 277.776Z" fill="#41484D" stroke="#41484D" stroke-linecap="round" stroke-linejoin="round"/>
<path d="M460.464 112.14H484.548V97.3317H470.568L469.152 93.7197H460.464V112.14Z" fill="#7A24E9" stroke="#41484D" stroke-miterlimit="10"/>
<path d="M460.464 136.068H484.548V121.272H470.568L469.152 117.648H460.464V136.068Z" fill="#7A24E9" stroke="#41484D" stroke-miterlimit="10"/>
<path d="M460.464 160.008H484.548V145.2H470.568L469.152 141.576H460.464V160.008Z" fill="#41484D" stroke="#41484D" stroke-miterlimit="10"/>
<path d="M460.464 310.14H484.548V295.332H470.568L469.152 291.72H460.464V310.14Z" fill="#7A24E9" stroke="#41484D" stroke-miterlimit="10"/>
<path d="M460.464 334.068H484.548V319.272H470.568L469.152 315.648H460.464V334.068Z" fill="#7A24E9" stroke="#41484D" stroke-miterlimit="10"/>
<path d="M460.464 358.008H484.548V343.2H470.568L469.152 339.588H460.464V358.008Z" fill="#41484D" stroke="#41484D" stroke-miterlimit="10"/>
<path d="M460.464 383.34H484.548V368.532H470.568L469.152 364.92H460.464V383.34Z" fill="#7A24E9" stroke="#41484D" stroke-miterlimit="10"/>
<path d="M460.464 407.268H484.548V392.472H470.568L469.152 388.848H460.464V407.268Z" fill="#7A24E9" stroke="#41484D" stroke-miterlimit="10"/>
<path d="M460.464 431.208H484.548V416.4H470.568L469.152 412.788H460.464V431.208Z" fill="#41484D" stroke="#41484D" stroke-miterlimit="10"/>
<path d="M424.668 231.024C424.493 228.627 424.493 226.221 424.668 223.824" stroke="#41484D" stroke-linecap="round" stroke-linejoin="round"/>
<path d="M432.48 230.4C432.336 228.374 432.336 226.341 432.48 224.316" stroke="#41484D" stroke-linecap="round" stroke-linejoin="round"/>
<path d="M424.512 227.436L432.348 227.376" stroke="#41484D" stroke-linecap="round" stroke-linejoin="round"/>
<path d="M424.68 222.888C424.887 220.494 425.256 218.116 425.784 215.772" stroke="#41484D" stroke-linecap="round" stroke-linejoin="round"/>
<path d="M432.492 223.536C432.672 221.517 432.984 219.513 433.428 217.536" stroke="#41484D" stroke-linecap="round" stroke-linejoin="round"/>
<path d="M425.112 219.312L432.852 220.512" stroke="#41484D" stroke-linecap="round" stroke-linejoin="round"/>
<path d="M426 214.86C426.574 212.522 427.324 210.232 428.244 208.008" stroke="#41484D" stroke-linecap="round" stroke-linejoin="round"/>
<path d="M433.608 216.756C434.096 214.785 434.726 212.852 435.492 210.972" stroke="#41484D" stroke-linecap="round" stroke-linejoin="round"/>
<path d="M426.996 211.392L434.448 213.828" stroke="#41484D" stroke-linecap="round" stroke-linejoin="round"/>
<path d="M428.604 207.144C429.554 204.936 430.661 202.798 431.916 200.748" stroke="#41484D" stroke-linecap="round" stroke-linejoin="round"/>
<path d="M435.804 210.24C436.609 208.377 437.543 206.572 438.6 204.84" stroke="#41484D" stroke-linecap="round" stroke-linejoin="round"/>
<path d="M430.14 203.892L437.1 207.492" stroke="#41484D" stroke-linecap="round" stroke-linejoin="round"/>
<path d="M432.408 199.956C433.044 198.936 433.728 197.952 434.46 196.992L436.716 194.196" stroke="#41484D" stroke-linecap="round" stroke-linejoin="round"/>
<path d="M439.02 204.168C439.557 203.303 440.138 202.466 440.76 201.66L442.668 199.26" stroke="#41484D" stroke-linecap="round" stroke-linejoin="round"/>
<path d="M434.46 196.992L440.76 201.66" stroke="#41484D" stroke-linecap="round" stroke-linejoin="round"/>
<path d="M437.304 193.464C438.12 192.588 438.984 191.748 439.824 190.884C440.256 190.464 440.652 190.02 441.108 189.684L442.488 188.484" stroke="#41484D" stroke-linecap="round" stroke-linejoin="round"/>
<path d="M443.16 198.672L445.296 196.5C445.656 196.14 445.992 195.756 446.376 195.42L447.576 194.46" stroke="#41484D" stroke-linecap="round" stroke-linejoin="round"/>
<path d="M439.824 190.884L445.296 196.5" stroke="#41484D" stroke-linecap="round" stroke-linejoin="round"/>
<path d="M443.22 187.872C444.121 187.074 445.079 186.344 446.088 185.688C447.084 185.028 448.068 184.332 449.088 183.696" stroke="#41484D" stroke-linecap="round" stroke-linejoin="round"/>
<path d="M448.164 193.944C448.917 193.272 449.719 192.658 450.564 192.108C451.416 191.556 452.244 190.908 453.096 190.428" stroke="#41484D" stroke-linecap="round" stroke-linejoin="round"/>
<path d="M446.088 185.688L450.576 192.108" stroke="#41484D" stroke-linecap="round" stroke-linejoin="round"/>
<path d="M449.916 183.252L453.084 181.536C454.176 181.044 455.292 180.6 456.396 180.132" stroke="#41484D" stroke-linecap="round" stroke-linejoin="round"/>
<path d="M453.816 190.044L456.492 188.604L459.288 187.416" stroke="#41484D" stroke-linecap="round" stroke-linejoin="round"/>
<path d="M453.084 181.536L456.492 188.604" stroke="#41484D" stroke-linecap="round" stroke-linejoin="round"/>
<path d="M457.272 179.76C458.376 179.316 459.552 179.028 460.692 178.644L462.408 178.116L464.172 177.744" stroke="#41484D" stroke-linecap="round" stroke-linejoin="round"/>
<path d="M460.02 187.104C460.968 186.72 461.952 186.48 462.912 186.168L464.376 185.712L465.864 185.4" stroke="#41484D" stroke-linecap="round" stroke-linejoin="round"/>
<path d="M460.692 178.644L462.912 186.168" stroke="#41484D" stroke-linecap="round" stroke-linejoin="round"/>
<path d="M465.096 177.6C466.262 177.327 467.444 177.131 468.636 177.012C469.836 176.892 471.036 176.724 472.236 176.652" stroke="#41484D" stroke-linecap="round" stroke-linejoin="round"/>
<path d="M466.644 185.244C467.629 184.997 468.632 184.829 469.644 184.74C470.652 184.644 471.66 184.488 472.668 184.428" stroke="#41484D" stroke-linecap="round" stroke-linejoin="round"/>
<path d="M468.636 176.964L469.644 184.74" stroke="#41484D" stroke-linecap="round" stroke-linejoin="round"/>
<path d="M473.16 176.58L476.76 176.532L480.36 176.82" stroke="#41484D" stroke-linecap="round" stroke-linejoin="round"/>
<path d="M473.46 184.416L476.508 184.368L479.544 184.62" stroke="#41484D" stroke-linecap="round" stroke-linejoin="round"/>
<path d="M476.76 176.532L476.508 184.368" stroke="#41484D" stroke-linecap="round" stroke-linejoin="round"/>
<path d="M481.296 176.892C482.496 177.036 483.696 177.3 484.896 177.504C485.484 177.612 486.096 177.708 486.66 177.828L488.4 178.32" stroke="#41484D" stroke-linecap="round" stroke-linejoin="round"/>
<path d="M480.336 184.68C481.344 184.8 482.34 185.028 483.336 185.196C483.828 185.28 484.332 185.364 484.836 185.472L486.288 185.88" stroke="#41484D" stroke-linecap="round" stroke-linejoin="round"/>
<path d="M484.848 177.504L483.336 185.196" stroke="#41484D" stroke-linecap="round" stroke-linejoin="round"/>
<path d="M489.252 178.584C491.562 179.246 493.824 180.068 496.02 181.044" stroke="#41484D" stroke-linecap="round" stroke-linejoin="round"/>
<path d="M487.056 186.108C489.003 186.67 490.911 187.36 492.768 188.172" stroke="#41484D" stroke-linecap="round" stroke-linejoin="round"/>
<path d="M492.672 179.7L489.948 187.056" stroke="#41484D" stroke-linecap="round" stroke-linejoin="round"/>
<path d="M496.86 181.476L500.064 183.12C501.108 183.708 502.092 184.404 503.1 185.052" stroke="#41484D" stroke-linecap="round" stroke-linejoin="round"/>
<path d="M493.476 188.544L496.188 189.936C497.064 190.428 497.892 191.028 498.756 191.568" stroke="#41484D" stroke-linecap="round" stroke-linejoin="round"/>
<path d="M500.064 183.12L496.188 189.936" stroke="#41484D" stroke-linecap="round" stroke-linejoin="round"/>
<path d="M503.892 185.556C504.889 186.225 505.846 186.95 506.76 187.728C507.718 188.452 508.632 189.233 509.496 190.068" stroke="#41484D" stroke-linecap="round" stroke-linejoin="round"/>
<path d="M499.416 192C500.253 192.562 501.055 193.175 501.816 193.836C502.635 194.444 503.413 195.105 504.144 195.816" stroke="#41484D" stroke-linecap="round" stroke-linejoin="round"/>
<path d="M506.76 187.728L501.84 193.836" stroke="#41484D" stroke-linecap="round" stroke-linejoin="round"/>
<path d="M510.168 190.728C511.008 191.58 511.908 192.384 512.7 193.284L514.992 196.068" stroke="#41484D" stroke-linecap="round" stroke-linejoin="round"/>
<path d="M504.732 196.368C505.44 197.1 506.208 197.772 506.868 198.528L508.812 200.928" stroke="#41484D" stroke-linecap="round" stroke-linejoin="round"/>
<path d="M512.7 193.284L506.868 198.528" stroke="#41484D" stroke-linecap="round" stroke-linejoin="round"/>
<path d="M515.592 196.8C517.007 198.746 518.294 200.782 519.444 202.896" stroke="#41484D" stroke-linecap="round" stroke-linejoin="round"/>
<path d="M509.316 201.48C510.504 203.126 511.586 204.845 512.556 206.628" stroke="#41484D" stroke-linecap="round" stroke-linejoin="round"/>
<path d="M517.608 199.776L511.02 204.012" stroke="#41484D" stroke-linecap="round" stroke-linejoin="round"/>
<path d="M519.888 203.712L520.728 205.296L521.436 206.964C521.88 208.068 522.408 209.16 522.768 210.3" stroke="#41484D" stroke-linecap="round" stroke-linejoin="round"/>
<path d="M512.928 207.324L513.648 208.668L514.236 210.072C514.608 211.02 515.076 211.932 515.436 212.892" stroke="#41484D" stroke-linecap="round" stroke-linejoin="round"/>
<path d="M521.436 206.964L514.236 210.072" stroke="#41484D" stroke-linecap="round" stroke-linejoin="round"/>
<path d="M523.056 211.2C523.404 212.4 523.788 213.48 524.088 214.644L524.832 218.172" stroke="#41484D" stroke-linecap="round" stroke-linejoin="round"/>
<path d="M515.604 213.66C515.892 214.632 516.228 215.592 516.492 216.576L517.116 219.552" stroke="#41484D" stroke-linecap="round" stroke-linejoin="round"/>
<path d="M524.088 214.644L516.492 216.576" stroke="#41484D" stroke-linecap="round" stroke-linejoin="round"/>
<path d="M525.024 219.096C525.367 221.481 525.56 223.886 525.6 226.296" stroke="#41484D" stroke-linecap="round" stroke-linejoin="round"/>
<path d="M517.284 220.332C517.561 222.321 517.722 224.324 517.764 226.332" stroke="#41484D" stroke-linecap="round" stroke-linejoin="round"/>
<path d="M525.42 222.672L517.608 223.356" stroke="#41484D" stroke-linecap="round" stroke-linejoin="round"/>
<path d="M525.6 227.208C525.6 227.808 525.6 228.408 525.6 229.008L525.456 230.796C525.336 231.996 525.324 233.196 525.096 234.396" stroke="#41484D" stroke-linecap="round" stroke-linejoin="round"/>
<path d="M517.776 227.196C517.776 227.7 517.776 228.204 517.776 228.708L517.656 230.232C517.606 231.245 517.502 232.254 517.344 233.256" stroke="#41484D" stroke-linecap="round" stroke-linejoin="round"/>
<path d="M525.468 230.796L517.656 230.232" stroke="#41484D" stroke-linecap="round" stroke-linejoin="round"/>
<path d="M524.94 235.308C524.712 236.508 524.544 237.708 524.268 238.848L523.284 242.316" stroke="#41484D" stroke-linecap="round" stroke-linejoin="round"/>
<path d="M517.2 234C516.996 234.996 516.864 236.004 516.624 236.988L515.796 239.916" stroke="#41484D" stroke-linecap="round" stroke-linejoin="round"/>
<path d="M524.268 238.848L516.636 237.024" stroke="#41484D" stroke-linecap="round" stroke-linejoin="round"/>
<path d="M523.02 243.216C522.225 245.485 521.279 247.697 520.188 249.84" stroke="#41484D" stroke-linecap="round" stroke-linejoin="round"/>
<path d="M515.592 240.72C514.912 242.629 514.11 244.493 513.192 246.3" stroke="#41484D" stroke-linecap="round" stroke-linejoin="round"/>
<path d="M521.712 246.576L514.476 243.552" stroke="#41484D" stroke-linecap="round" stroke-linejoin="round"/>
<path d="M519.756 250.68L518.928 252.276C518.628 252.792 518.28 253.284 517.968 253.8L516 256.8" stroke="#41484D" stroke-linecap="round" stroke-linejoin="round"/>
<path d="M512.832 247.008L512.136 248.364C511.884 248.808 511.584 249.216 511.32 249.648L509.652 252.204" stroke="#41484D" stroke-linecap="round" stroke-linejoin="round"/>
<path d="M517.968 253.8L511.32 249.648" stroke="#41484D" stroke-linecap="round" stroke-linejoin="round"/>
<path d="M515.412 257.544L513.144 260.4C512.388 261.336 511.488 262.14 510.66 263.004" stroke="#41484D" stroke-linecap="round" stroke-linejoin="round"/>
<path d="M509.148 252.816L507.24 255.216C506.604 256.008 505.836 256.68 505.14 257.412" stroke="#41484D" stroke-linecap="round" stroke-linejoin="round"/>
<path d="M513.144 260.34L507.24 255.192" stroke="#41484D" stroke-linecap="round" stroke-linejoin="round"/>
<path d="M510 263.616C509.152 264.472 508.25 265.274 507.3 266.016C506.397 266.808 505.447 267.545 504.456 268.224" stroke="#41484D" stroke-linecap="round" stroke-linejoin="round"/>
<path d="M504.576 258C503.865 258.725 503.103 259.399 502.296 260.016C501.536 260.69 500.735 261.315 499.896 261.888" stroke="#41484D" stroke-linecap="round" stroke-linejoin="round"/>
<path d="M507.3 266.004L502.296 259.968" stroke="#41484D" stroke-linecap="round" stroke-linejoin="round"/>
<path d="M503.688 268.8C502.668 269.448 501.72 270.192 500.652 270.756L497.484 272.4" stroke="#41484D" stroke-linecap="round" stroke-linejoin="round"/>
<path d="M499.2 262.272C498.336 262.824 497.544 263.472 496.644 263.928L493.968 265.38" stroke="#41484D" stroke-linecap="round" stroke-linejoin="round"/>
<path d="M500.652 270.696L496.692 263.928" stroke="#41484D" stroke-linecap="round" stroke-linejoin="round"/>
<path d="M496.644 272.82C494.461 273.825 492.212 274.679 489.912 275.376" stroke="#41484D" stroke-linecap="round" stroke-linejoin="round"/>
<path d="M493.308 265.728C491.461 266.571 489.561 267.293 487.62 267.888" stroke="#41484D" stroke-linecap="round" stroke-linejoin="round"/>
<path d="M493.32 274.224L490.5 266.904" stroke="#41484D" stroke-linecap="round" stroke-linejoin="round"/>
<path d="M489.012 275.652C487.869 276.019 486.702 276.307 485.52 276.516C484.333 276.792 483.131 277 481.92 277.14" stroke="#41484D" stroke-linecap="round" stroke-linejoin="round"/>
<path d="M486.852 268.116C485.887 268.429 484.901 268.669 483.9 268.836C482.917 269.08 481.919 269.261 480.912 269.376" stroke="#41484D" stroke-linecap="round" stroke-linejoin="round"/>
<path d="M485.52 276.516L483.9 268.836" stroke="#41484D" stroke-linecap="round" stroke-linejoin="round"/>
<path d="M481.044 277.2C479.844 277.308 478.644 277.536 477.444 277.524H473.844" stroke="#41484D" stroke-linecap="round" stroke-linejoin="round"/>
<path d="M480.12 269.46C479.114 269.606 478.1 269.698 477.084 269.736H474.036" stroke="#41484D" stroke-linecap="round" stroke-linejoin="round"/>
<path d="M477.456 277.572L477.084 269.736" stroke="#41484D" stroke-linecap="round" stroke-linejoin="round"/>
<path d="M472.92 277.596C470.503 277.483 468.097 277.198 465.72 276.744" stroke="#41484D" stroke-linecap="round" stroke-linejoin="round"/>
<path d="M473.244 269.76C471.23 269.656 469.225 269.416 467.244 269.04" stroke="#41484D" stroke-linecap="round" stroke-linejoin="round"/>
<path d="M469.332 277.308L470.208 269.52" stroke="#41484D" stroke-linecap="round" stroke-linejoin="round"/>
<path d="M464.844 276.576C463.663 276.36 462.497 276.071 461.352 275.712C460.186 275.422 459.039 275.057 457.92 274.62" stroke="#41484D" stroke-linecap="round" stroke-linejoin="round"/>
<path d="M466.428 268.896C465.429 268.717 464.443 268.473 463.476 268.164C462.494 267.92 461.528 267.615 460.584 267.252" stroke="#41484D" stroke-linecap="round" stroke-linejoin="round"/>
<path d="M461.352 275.712L463.476 268.164" stroke="#41484D" stroke-linecap="round" stroke-linejoin="round"/>
<path d="M457.044 274.284C455.928 273.816 454.776 273.444 453.708 272.904L450.504 271.2" stroke="#41484D" stroke-linecap="round" stroke-linejoin="round"/>
<path d="M459.84 266.964C458.904 266.568 457.932 266.268 457.032 265.764L454.332 264.372" stroke="#41484D" stroke-linecap="round" stroke-linejoin="round"/>
<path d="M453.708 272.904L457.032 265.8" stroke="#41484D" stroke-linecap="round" stroke-linejoin="round"/>
<path d="M449.676 270.816C447.684 269.472 445.596 268.284 443.676 266.748" stroke="#41484D" stroke-linecap="round" stroke-linejoin="round"/>
<path d="M453.6 264C451.92 262.8 450.132 261.864 448.572 260.568" stroke="#41484D" stroke-linecap="round" stroke-linejoin="round"/>
<path d="M446.652 268.848L451.068 262.368" stroke="#41484D" stroke-linecap="round" stroke-linejoin="round"/>
<path d="M443.004 266.172C441.143 264.648 439.394 262.992 437.772 261.216" stroke="#41484D" stroke-linecap="round" stroke-linejoin="round"/>
<path d="M447.972 260.112C446.406 258.819 444.93 257.42 443.556 255.924" stroke="#41484D" stroke-linecap="round" stroke-linejoin="round"/>
<path d="M440.304 263.784L445.692 258.084" stroke="#41484D" stroke-linecap="round" stroke-linejoin="round"/>
<path d="M437.136 260.532C435.556 258.721 434.1 256.804 432.78 254.796" stroke="#41484D" stroke-linecap="round" stroke-linejoin="round"/>
<path d="M443.016 255.336C441.678 253.823 440.447 252.219 439.332 250.536" stroke="#41484D" stroke-linecap="round" stroke-linejoin="round"/>
<path d="M434.856 257.736L441.096 252.984" stroke="#41484D" stroke-linecap="round" stroke-linejoin="round"/>
<path d="M432.264 254.004C430.988 251.966 429.857 249.841 428.88 247.644" stroke="#41484D" stroke-linecap="round" stroke-linejoin="round"/>
<path d="M438.9 249.84C437.824 248.117 436.869 246.32 436.044 244.464" stroke="#41484D" stroke-linecap="round" stroke-linejoin="round"/>
<path d="M430.464 250.884L437.388 247.2" stroke="#41484D" stroke-linecap="round" stroke-linejoin="round"/>
<path d="M428.496 246.792C427.574 244.571 426.805 242.289 426.192 239.964" stroke="#41484D" stroke-linecap="round" stroke-linejoin="round"/>
<path d="M435.72 243.744C434.941 241.866 434.292 239.938 433.776 237.972" stroke="#41484D" stroke-linecap="round" stroke-linejoin="round"/>
<path d="M427.236 243.42L434.652 240.888" stroke="#41484D" stroke-linecap="round" stroke-linejoin="round"/>
<path d="M426 239.064C425.438 236.726 425.037 234.353 424.8 231.96" stroke="#41484D" stroke-linecap="round" stroke-linejoin="round"/>
<path d="M433.572 237.204C433.101 235.228 432.76 233.224 432.552 231.204" stroke="#41484D" stroke-linecap="round" stroke-linejoin="round"/>
<path d="M425.232 235.536L432.96 234.216" stroke="#41484D" stroke-linecap="round" stroke-linejoin="round"/>
<path d="M475.44 196.5C479.775 196.554 484.049 197.528 487.979 199.359C491.909 201.189 495.405 203.833 498.236 207.117C501.067 210.4 503.168 214.248 504.399 218.405C505.631 222.561 505.965 226.932 505.38 231.228" stroke="#41484D" stroke-width="2" stroke-miterlimit="10"/>
<path d="M446.532 216.096C448.778 210.272 452.751 205.274 457.917 201.771C463.084 198.269 469.198 196.429 475.44 196.5" stroke="#7A24E9" stroke-width="5" stroke-miterlimit="10"/>
<path d="M480.588 257.16C475.244 258.137 469.736 257.674 464.631 255.818C459.526 253.962 455.007 250.779 451.539 246.598C448.071 242.416 445.779 237.386 444.899 232.026C444.019 226.665 444.583 221.166 446.532 216.096" stroke="#41484D" stroke-width="2" stroke-miterlimit="10"/>
<path d="M505.38 231.228C504.503 237.61 501.635 243.552 497.183 248.208C492.731 252.865 486.924 255.997 480.588 257.16" stroke="#7A24E9" stroke-width="5" stroke-miterlimit="10"/>
<path d="M220.296 409.68H244.38V394.872H230.4L228.984 391.248H220.296V409.68Z" fill="#7A24E9" stroke="#41484D" stroke-miterlimit="10"/>
<path d="M220.296 433.608H244.38V418.8H230.4L228.984 415.188H220.296V433.608Z" fill="#7A24E9" stroke="#41484D" stroke-miterlimit="10"/>
<path d="M220.296 457.536H244.38V442.728H230.4L228.984 439.116H220.296V457.536Z" fill="#41484D" stroke="#41484D" stroke-miterlimit="10"/>
<path d="M258.696 409.68H282.78V394.872H268.8L267.384 391.248H258.696V409.68Z" fill="#7A24E9" stroke="#41484D" stroke-miterlimit="10"/>
<path d="M258.696 433.608H282.78V418.8H268.8L267.384 415.188H258.696V433.608Z" fill="#41484D" stroke="#41484D" stroke-miterlimit="10"/>
<path d="M258.696 457.536H282.78V442.728H268.8L267.384 439.116H258.696V457.536Z" fill="#7A24E9" stroke="#41484D" stroke-miterlimit="10"/>
<path d="M220.296 108.48H244.38V93.6718H230.4L228.984 90.0479H220.296V108.48Z" fill="#7A24E9" stroke="#41484D" stroke-miterlimit="10"/>
<path d="M220.296 132.408H244.38V117.6H230.4L228.984 113.988H220.296V132.408Z" fill="#7A24E9" stroke="#41484D" stroke-miterlimit="10"/>
<path d="M220.296 156.336H244.38V141.528H230.4L228.984 137.916H220.296V156.336Z" fill="#7A24E9" stroke="#41484D" stroke-miterlimit="10"/>
<path d="M258.696 108.48H282.78V93.6718H268.8L267.384 90.0479H258.696V108.48Z" fill="#41484D" stroke="#41484D" stroke-miterlimit="10"/>
<path d="M258.696 132.408H282.78V117.6H268.8L267.384 113.988H258.696V132.408Z" fill="#7A24E9" stroke="#41484D" stroke-miterlimit="10"/>
<path d="M258.696 156.336H282.78V141.528H268.8L267.384 137.916H258.696V156.336Z" fill="#41484D" stroke="#41484D" stroke-miterlimit="10"/>
<path d="M393.684 532.932C430.135 532.932 459.684 528.366 459.684 522.732C459.684 517.099 430.135 512.532 393.684 512.532C357.233 512.532 327.684 517.099 327.684 522.732C327.684 528.366 357.233 532.932 393.684 532.932Z" fill="#41484D"/>
<path d="M381.42 508.704C381.42 508.704 368.82 516.804 361.92 518.304C355.02 519.804 352.92 521.904 358.62 524.604C364.32 527.304 381.72 528.204 389.82 526.404C397.92 524.604 400.92 527.004 401.82 523.404C402.487 520.025 402.384 516.538 401.52 513.204C400.92 510.504 386.22 506.304 381.42 508.704Z" fill="white" stroke="#41484D" stroke-linecap="round" stroke-linejoin="round"/>
<path d="M364.92 346.704C364.92 346.704 366.42 370.104 370.62 388.404C374.82 406.704 376.92 431.304 379.02 444.804C381.12 458.304 382.62 480.504 382.92 490.404C383.22 500.304 383.82 503.304 383.22 504.204C382.62 505.104 381.12 505.404 381.12 506.604C381.12 507.804 380.82 510.504 380.82 510.504C380.82 510.504 383.52 512.904 390.72 515.604C397.92 518.304 402.72 519.804 402.72 519.804C404.879 517.73 406.256 514.975 406.62 512.004C407.52 506.604 404.82 500.304 404.82 496.704C404.82 493.104 412.62 461.604 409.92 448.704C407.22 435.804 401.82 421.104 401.82 413.304C401.82 405.504 404.82 382.404 404.82 382.404C404.82 382.404 412.62 369.504 412.92 360.204C413.105 354.703 413.005 349.195 412.62 343.704C412.62 343.704 377.22 348.804 364.92 346.704Z" fill="#41484D" stroke="#41484D" stroke-linecap="round" stroke-linejoin="round"/>
<path d="M371.1 263.172C368.365 270.629 366.881 278.487 366.708 286.428C366.708 298.488 364.956 324.6 363.192 336C361.428 347.4 360.132 348.072 363.192 349.824C366.252 351.576 375.264 353.556 388.644 352.68C402.024 351.804 416.244 347.412 416.952 345.48C417.66 343.548 417.168 340.872 416.508 338.28C415.848 335.688 418.908 308.004 412.344 284.976C405.78 261.948 401.148 250.308 398.076 247.236L395.004 244.164L371.1 263.172Z" fill="#2247F2" stroke="#41484D" stroke-linecap="round" stroke-linejoin="round"/>
<path d="M350.472 204.804C350.472 204.804 350.04 212.928 351.132 215.784C352.224 218.64 352.668 221.916 351.576 224.112C350.484 226.308 348.276 228.912 349.812 230.256C350.825 231.105 351.928 231.841 353.1 232.452C353.1 232.452 357.492 240.348 359.688 244.74C361.884 249.132 362.976 250.224 365.172 249.348C366.769 248.67 368.309 247.868 369.78 246.948C369.78 246.948 375.924 253.968 376.8 255.72C377.588 257.015 378.634 258.134 379.872 259.008L394.8 242.76C392.224 239.892 390.413 236.421 389.532 232.668C387.996 226.308 387.564 225.468 389.1 222.576C390.636 219.684 393.708 219.504 391.944 212.484C390.18 205.464 392.604 203.268 386.244 198.888C379.884 194.508 367.812 193.836 364.308 193.836C361.485 193.759 358.714 194.601 356.412 196.236C354.636 197.568 350.472 204.804 350.472 204.804Z" fill="white" stroke="#41484D" stroke-linecap="round" stroke-linejoin="round"/>
<path d="M364.728 188.58C364.728 188.58 348.936 193.62 346.728 195.6C344.52 197.58 350.028 209.64 350.028 209.64L360.996 203.268L356.4 208.8C356.4 208.8 354 209.448 362.544 209.016C371.088 208.584 375.264 205.5 375.264 205.5C375.264 205.5 369.78 211.644 370.224 213.396C370.668 215.148 373.728 218.004 374.604 219.324C375.48 220.644 376.8 218.892 376.8 218.892C376.8 218.892 378.12 224.376 378.552 223.056C378.969 221.101 379.262 219.121 379.428 217.128C379.428 217.128 381.408 212.748 384.228 213.84C387.048 214.932 388.608 221.952 386.628 225.252C385.39 227.238 383.42 228.656 381.144 229.2C381.144 229.2 385.752 234.24 387.06 233.148C388.368 232.056 388.824 229.86 389.7 228.756C390.576 227.652 401.544 218.232 402.9 211.428C404.256 204.624 394.344 188.172 386.664 186.636C378.984 185.1 364.728 188.58 364.728 188.58Z" fill="#41484D" stroke="#41484D" stroke-linecap="round" stroke-linejoin="round"/>
<path d="M351.66 216.96L353.448 224.16C353.533 224.542 353.736 224.887 354.03 225.146C354.323 225.404 354.691 225.564 355.08 225.6C357.084 225.78 360.744 225.96 361.224 225.012C361.884 223.704 361.008 215.148 359.904 213.828C358.56 212.208 355.5 213.504 354.012 214.212C353.409 214.548 352.828 214.92 352.272 215.328C352.024 215.512 351.834 215.764 351.726 216.054C351.617 216.343 351.594 216.658 351.66 216.96Z" fill="white" stroke="#41484D" stroke-linecap="round" stroke-linejoin="round"/>
<path d="M361.44 217.308L379.656 215.556L361.524 219.288L361.44 217.308Z" fill="#41484D" stroke="#41484D" stroke-linecap="round" stroke-linejoin="round"/>
<path d="M380.088 229.2C380.088 229.2 382.728 236.88 380.964 239.064C379.2 241.248 373.512 244.776 373.512 244.776" fill="white"/>
<path d="M380.088 229.2C380.088 229.2 382.728 236.88 380.964 239.064C379.2 241.248 373.512 244.776 373.512 244.776" stroke="#41484D" stroke-linecap="round" stroke-linejoin="round"/>
<path d="M394.8 238.38C394.8 238.38 366.72 264.048 367.38 264.708C368.04 265.368 373.044 272.988 373.044 272.988C376.882 267.262 381.02 261.742 385.44 256.452C390.067 251.561 394.95 246.919 400.068 242.544L394.8 238.38Z" fill="#41484D" stroke="#41484D" stroke-linecap="round" stroke-linejoin="round"/>
<path d="M328.8 307.26C328.8 307.26 320.904 307.26 319.368 309.024C317.832 310.788 321.996 312.528 323.532 312.744C325.454 312.735 327.369 312.518 329.244 312.096L328.8 307.26Z" fill="white" stroke="#41484D" stroke-linecap="round" stroke-linejoin="round"/>
<path d="M332.268 305.292C332.268 305.292 328.752 303.972 327.876 306.828C327 309.684 329.196 318.228 330.504 318.456C331.812 318.684 332.484 317.796 332.484 315.168C332.484 312.54 332.268 305.292 332.268 305.292Z" fill="white" stroke="#41484D" stroke-linecap="round" stroke-linejoin="round"/>
<path d="M338.4 304.8C338.4 304.8 333.792 302.172 332.028 304.14C330.264 306.108 332.256 317.748 332.256 317.748C333.564 318.408 335.76 310.728 337.74 308.316C338.634 307.292 339.437 306.192 340.14 305.028L338.4 304.8Z" fill="white" stroke="#41484D" stroke-linecap="round" stroke-linejoin="round"/>
<path d="M366.924 305.076C366.924 305.076 355.524 315.6 353.544 315.6C351.564 315.6 343.452 306.168 341.484 305.076C339.516 303.984 336.876 310.116 336.216 312.096C335.718 314.256 335.425 316.457 335.34 318.672C335.473 318.848 335.648 318.987 335.85 319.076C336.052 319.165 336.273 319.2 336.493 319.178C336.712 319.157 336.922 319.079 337.103 318.952C337.284 318.826 337.429 318.655 337.524 318.456C338.893 316.123 340.139 313.72 341.256 311.256L342.576 313.02" fill="white"/>
<path d="M366.924 305.076C366.924 305.076 355.524 315.6 353.544 315.6C351.564 315.6 343.452 306.168 341.484 305.076C339.516 303.984 336.876 310.116 336.216 312.096C335.718 314.256 335.425 316.457 335.34 318.672C335.473 318.848 335.648 318.987 335.85 319.076C336.052 319.165 336.273 319.2 336.493 319.178C336.712 319.157 336.922 319.079 337.103 318.952C337.284 318.826 337.429 318.655 337.524 318.456C338.893 316.123 340.139 313.72 341.256 311.256L342.576 313.02" stroke="#41484D" stroke-linecap="round" stroke-linejoin="round"/>
<path d="M348.72 312.528C348.72 312.528 341.916 313.632 340.824 315.6C339.732 317.568 339.504 317.796 341.916 318C344.328 318.204 350.04 318.876 350.916 317.784C351.792 316.692 349.596 312.744 348.72 312.528Z" fill="white" stroke="#41484D" stroke-linecap="round" stroke-linejoin="round"/>
<path d="M309.228 325.908L282.024 266.46L298.692 267.336L322.176 323.064L309.228 325.908Z" fill="#71787E" stroke="#41484D" stroke-linecap="round" stroke-linejoin="round"/>
<path d="M320.64 318.888L308.568 324.156H374.604L365.616 318.456L320.64 318.888Z" fill="#71787E" stroke="#41484D" stroke-linecap="round" stroke-linejoin="round"/>
<path d="M392.16 262.728C392.16 262.728 383.82 264.264 382.5 271.728C381.18 279.192 384.9 307.728 384.9 308.364V313.632C384.9 314.94 390.168 314.508 396.312 317.352C402.456 320.196 406.188 324.816 406.188 321.3C406.188 317.784 405.312 275.7 405.312 275.7" fill="#2247F2"/>
<path d="M392.16 262.728C392.16 262.728 383.82 264.264 382.5 271.728C381.18 279.192 384.9 307.728 384.9 308.364V313.632C384.9 314.94 390.168 314.508 396.312 317.352C402.456 320.196 406.188 324.816 406.188 321.3C406.188 317.784 405.312 275.7 405.312 275.7" stroke="#41484D" stroke-linecap="round" stroke-linejoin="round"/>
<path d="M405.756 292.56L409.272 280.5" stroke="#41484D" stroke-linecap="round" stroke-linejoin="round"/>
<path d="M380.748 310.116L381.84 319.548C381.84 319.548 405.756 333.588 406.416 333.156C407.076 332.724 407.736 331.392 407.736 329.208C407.736 327.024 411.24 315.6 407.076 312.972C402.912 310.344 387.6 309.9 387.6 309.9C387.6 309.9 383.16 309.024 380.748 310.116Z" fill="#41484D" stroke="#41484D" stroke-linecap="round" stroke-linejoin="round"/>
<path d="M383.604 319.116C383.604 319.116 361.008 327.228 346.308 328.104C331.608 328.98 329.856 328.104 329.856 328.104C329.856 328.104 328.536 322.836 326.34 321.528C324.144 320.22 317.124 321.3 315.804 320.424C314.484 319.548 314.496 316.704 313.62 315.816C312.744 314.928 308.82 315.384 308.82 315.384C308.82 315.384 306.852 316.476 306.852 318.012C306.852 319.548 305.532 329.424 307.284 330.3C309.036 331.176 331.86 335.568 340.416 335.568C348.972 335.568 374.208 337.968 387.144 336C400.08 334.032 404.916 332.496 404.484 328.98C404.052 325.464 387.768 318.228 383.604 319.116Z" fill="white" stroke="#41484D" stroke-linecap="round" stroke-linejoin="round"/>
<path d="M307.692 316.704L308.136 328.32" stroke="#41484D" stroke-linecap="round" stroke-linejoin="round"/>
<path d="M311.208 315.6L311.856 327.012" stroke="#41484D" stroke-linecap="round" stroke-linejoin="round"/>
<path d="M315.804 320.4C315.804 320.4 314.928 323.04 316.464 324.132C318 325.224 323.928 326.112 323.928 326.112" fill="white"/>
<path d="M315.804 320.4C315.804 320.4 314.928 323.04 316.464 324.132C318 325.224 323.928 326.112 323.928 326.112" stroke="#41484D" stroke-linecap="round" stroke-linejoin="round"/>
<path d="M381.192 288.18H370.656V305.508H381.192V288.18Z" fill="white" stroke="#41484D" stroke-linecap="round" stroke-linejoin="round"/>
</svg>
