<svg width="40" height="40" viewBox="0 0 40 40" fill="none" xmlns="http://www.w3.org/2000/svg">
<path d="M20 18.3333C24.1667 18.3333 27.7083 17.6806 30.625 16.375C33.5417 15.0694 35 13.5 35 11.6667C35 9.83333 33.5417 8.26389 30.625 6.95833C27.7083 5.65278 24.1667 5 20 5C15.8333 5 12.2917 5.65278 9.375 6.95833C6.45833 8.26389 5 9.83333 5 11.6667C5 13.5 6.45833 15.0694 9.375 16.375C12.2917 17.6806 15.8333 18.3333 20 18.3333ZM20 22.5C21.1389 22.5 22.5625 22.3819 24.2708 22.1458C25.9792 21.9097 27.625 21.5278 29.2083 21C30.7917 20.4722 32.1528 19.7847 33.2917 18.9375C34.4306 18.0903 35 17.0556 35 15.8333V20C35 21.2222 34.4306 22.2569 33.2917 23.1042C32.1528 23.9514 30.7917 24.6389 29.2083 25.1667C27.625 25.6944 25.9792 26.0764 24.2708 26.3125C22.5625 26.5486 21.1389 26.6667 20 26.6667C18.8611 26.6667 17.4375 26.5486 15.7292 26.3125C14.0208 26.0764 12.375 25.6944 10.7917 25.1667C9.20833 24.6389 7.84722 23.9514 6.70833 23.1042C5.56944 22.2569 5 21.2222 5 20V15.8333C5 17.0556 5.56944 18.0903 6.70833 18.9375C7.84722 19.7847 9.20833 20.4722 10.7917 21C12.375 21.5278 14.0208 21.9097 15.7292 22.1458C17.4375 22.3819 18.8611 22.5 20 22.5ZM20 30.8333C21.1389 30.8333 22.5625 30.7153 24.2708 30.4792C25.9792 30.2431 27.625 29.8611 29.2083 29.3333C30.7917 28.8056 32.1528 28.1181 33.2917 27.2708C34.4306 26.4236 35 25.3889 35 24.1667V28.3333C35 29.5556 34.4306 30.5903 33.2917 31.4375C32.1528 32.2847 30.7917 32.9722 29.2083 33.5C27.625 34.0278 25.9792 34.4097 24.2708 34.6458C22.5625 34.8819 21.1389 35 20 35C18.8611 35 17.4375 34.8819 15.7292 34.6458C14.0208 34.4097 12.375 34.0278 10.7917 33.5C9.20833 32.9722 7.84722 32.2847 6.70833 31.4375C5.56944 30.5903 5 29.5556 5 28.3333V24.1667C5 25.3889 5.56944 26.4236 6.70833 27.2708C7.84722 28.1181 9.20833 28.8056 10.7917 29.3333C12.375 29.8611 14.0208 30.2431 15.7292 30.4792C17.4375 30.7153 18.8611 30.8333 20 30.8333Z" fill="#A974FF"/>
</svg>
