<svg width="60" height="60" viewBox="0 0 60 60" fill="none" xmlns="http://www.w3.org/2000/svg">
<path d="M38.875 51L30.25 42.375L33.75 38.875L38.875 44L51.5 31.375L55 34.875L38.875 51ZM25 30C22.25 30 19.8958 29.0208 17.9375 27.0625C15.9792 25.1042 15 22.75 15 20C15 17.25 15.9792 14.8958 17.9375 12.9375C19.8958 10.9792 22.25 10 25 10C27.75 10 30.1042 10.9792 32.0625 12.9375C34.0208 14.8958 35 17.25 35 20C35 22.75 34.0208 25.1042 32.0625 27.0625C30.1042 29.0208 27.75 30 25 30ZM32.125 33.25L23 42.375L30.625 50H5V43C5 41.625 5.35417 40.3333 6.0625 39.125C6.77083 37.9167 7.75 37 9 36.375C11.125 35.2917 13.5208 34.375 16.1875 33.625C18.8542 32.875 21.7917 32.5 25 32.5C26.25 32.5 27.4688 32.5625 28.6562 32.6875C29.8438 32.8125 31 33 32.125 33.25Z" fill="#A974FF"/>
</svg>
