<svg width="60" height="60" viewBox="0 0 60 60" fill="none" xmlns="http://www.w3.org/2000/svg">
<path d="M42.5 40C40.4167 40 38.6458 39.2708 37.1875 37.8125C35.7292 36.3542 35 34.5833 35 32.5C35 30.4167 35.7292 28.6458 37.1875 27.1875C38.6458 25.7292 40.4167 25 42.5 25C44.5833 25 46.3542 25.7292 47.8125 27.1875C49.2708 28.6458 50 30.4167 50 32.5C50 34.5833 49.2708 36.3542 47.8125 37.8125C46.3542 39.2708 44.5833 40 42.5 40ZM27.5 57.5V50.25C27.5 49.375 27.7083 48.5521 28.125 47.7812C28.5417 47.0104 29.125 46.3958 29.875 45.9375C31.2083 45.1458 32.6146 44.4896 34.0938 43.9688C35.5729 43.4479 37.0833 43.0625 38.625 42.8125L42.5 47.5L46.375 42.8125C47.9167 43.0625 49.4167 43.4479 50.875 43.9688C52.3333 44.4896 53.7292 45.1458 55.0625 45.9375C55.8125 46.3958 56.4062 47.0104 56.8438 47.7812C57.2812 48.5521 57.5 49.375 57.5 50.25V57.5H27.5ZM22.5 50.25V52.5H12.5C11.125 52.5 9.94792 52.0104 8.96875 51.0312C7.98958 50.0521 7.5 48.875 7.5 47.5V12.5C7.5 11.125 7.98958 9.94792 8.96875 8.96875C9.94792 7.98958 11.125 7.5 12.5 7.5H47.5C48.875 7.5 50.0521 7.98958 51.0312 8.96875C52.0104 9.94792 52.5 11.125 52.5 12.5V25C51.2083 23.375 49.75 22.1354 48.125 21.2812C46.5 20.4271 44.625 20 42.5 20V17.5H17.5V22.5H35C34.1667 23.1667 33.4167 23.9167 32.75 24.75C32.0833 25.5833 31.5208 26.5 31.0625 27.5H17.5V32.5H30C30 33.375 30.0938 34.2292 30.2812 35.0625C30.4688 35.8958 30.7292 36.7083 31.0625 37.5H17.5V42.5H26.125C25 43.4583 24.1146 44.6146 23.4688 45.9688C22.8229 47.3229 22.5 48.75 22.5 50.25Z" fill="#A974FF"/>
</svg>
