<svg width="61" height="60" viewBox="0 0 61 60" fill="none" xmlns="http://www.w3.org/2000/svg">
<path d="M7.83325 50C6.45825 50 5.28117 49.5104 4.302 48.5312C3.32284 47.5521 2.83325 46.375 2.83325 45V17.5H7.83325V45H50.3333V50H7.83325ZM17.8333 40C16.4583 40 15.2812 39.5104 14.302 38.5312C13.3228 37.5521 12.8333 36.375 12.8333 35V15C12.8333 13.625 13.3228 12.4479 14.302 11.4688C15.2812 10.4896 16.4583 10 17.8333 10H52.8333C54.2083 10 55.3853 10.4896 56.3645 11.4688C57.3437 12.4479 57.8333 13.625 57.8333 15V35C57.8333 36.375 57.3437 37.5521 56.3645 38.5312C55.3853 39.5104 54.2083 40 52.8333 40H17.8333ZM22.8333 35C22.8333 33.625 22.3437 32.4479 21.3645 31.4688C20.3853 30.4896 19.2083 30 17.8333 30V35H22.8333ZM47.8333 35H52.8333V30C51.4583 30 50.2812 30.4896 49.302 31.4688C48.3228 32.4479 47.8333 33.625 47.8333 35ZM35.3333 32.5C37.4166 32.5 39.1874 31.7708 40.6458 30.3125C42.1041 28.8542 42.8333 27.0833 42.8333 25C42.8333 22.9167 42.1041 21.1458 40.6458 19.6875C39.1874 18.2292 37.4166 17.5 35.3333 17.5C33.2499 17.5 31.4791 18.2292 30.0208 19.6875C28.5624 21.1458 27.8333 22.9167 27.8333 25C27.8333 27.0833 28.5624 28.8542 30.0208 30.3125C31.4791 31.7708 33.2499 32.5 35.3333 32.5ZM17.8333 20C19.2083 20 20.3853 19.5104 21.3645 18.5312C22.3437 17.5521 22.8333 16.375 22.8333 15H17.8333V20ZM52.8333 20V15H47.8333C47.8333 16.375 48.3228 17.5521 49.302 18.5312C50.2812 19.5104 51.4583 20 52.8333 20Z" fill="#A974FF"/>
</svg>
