<svg width="40" height="40" viewBox="0 0 40 40" fill="none" xmlns="http://www.w3.org/2000/svg">
<path d="M10.0001 36.667C9.08341 36.667 8.29869 36.3406 7.64591 35.6878C6.99314 35.035 6.66675 34.2503 6.66675 33.3337V16.667C6.66675 15.7503 6.99314 14.9656 7.64591 14.3128C8.29869 13.66 9.08341 13.3337 10.0001 13.3337H11.6667V10.0003C11.6667 7.69477 12.4792 5.72949 14.1042 4.10449C15.7292 2.47949 17.6945 1.66699 20.0001 1.66699C22.3056 1.66699 24.2709 2.47949 25.8959 4.10449C27.5209 5.72949 28.3334 7.69477 28.3334 10.0003V13.3337H30.0001C30.9167 13.3337 31.7015 13.66 32.3542 14.3128C33.007 14.9656 33.3334 15.7503 33.3334 16.667V33.3337C33.3334 34.2503 33.007 35.035 32.3542 35.6878C31.7015 36.3406 30.9167 36.667 30.0001 36.667H10.0001ZM20.0001 28.3337C20.9167 28.3337 21.7015 28.0073 22.3542 27.3545C23.007 26.7017 23.3334 25.917 23.3334 25.0003C23.3334 24.0837 23.007 23.2989 22.3542 22.6462C21.7015 21.9934 20.9167 21.667 20.0001 21.667C19.0834 21.667 18.2987 21.9934 17.6459 22.6462C16.9931 23.2989 16.6667 24.0837 16.6667 25.0003C16.6667 25.917 16.9931 26.7017 17.6459 27.3545C18.2987 28.0073 19.0834 28.3337 20.0001 28.3337ZM15.0001 13.3337H25.0001V10.0003C25.0001 8.61144 24.514 7.43088 23.5417 6.45866C22.5695 5.48644 21.389 5.00033 20.0001 5.00033C18.6112 5.00033 17.4306 5.48644 16.4584 6.45866C15.4862 7.43088 15.0001 8.61144 15.0001 10.0003V13.3337Z" fill="#A974FF"/>
</svg>
