<svg width="61" height="60" viewBox="0 0 61 60" fill="none" xmlns="http://www.w3.org/2000/svg">
<path d="M39.2084 51L30.5834 42.375L34.0834 38.875L39.2084 44L51.8334 31.375L55.3334 34.875L39.2084 51ZM25.3334 30C22.5834 30 20.2292 29.0208 18.2709 27.0625C16.3125 25.1042 15.3334 22.75 15.3334 20C15.3334 17.25 16.3125 14.8958 18.2709 12.9375C20.2292 10.9792 22.5834 10 25.3334 10C28.0834 10 30.4375 10.9792 32.3959 12.9375C34.3542 14.8958 35.3334 17.25 35.3334 20C35.3334 22.75 34.3542 25.1042 32.3959 27.0625C30.4375 29.0208 28.0834 30 25.3334 30ZM32.4584 33.25L23.3334 42.375L30.9584 50H5.33337V43C5.33337 41.625 5.68754 40.3333 6.39587 39.125C7.10421 37.9167 8.08337 37 9.33337 36.375C11.4584 35.2917 13.8542 34.375 16.5209 33.625C19.1875 32.875 22.125 32.5 25.3334 32.5C26.5834 32.5 27.8021 32.5625 28.9896 32.6875C30.1771 32.8125 31.3334 33 32.4584 33.25Z" fill="#A974FF"/>
</svg>
