<svg width="61" height="60" viewBox="0 0 61 60" fill="none" xmlns="http://www.w3.org/2000/svg">
<path d="M30.3333 22.5L21.5833 13.75L30.3333 5L39.0833 13.75L30.3333 22.5ZM2.83325 50V40C2.83325 38.5833 3.32284 37.3958 4.302 36.4375C5.28117 35.4792 6.45825 35 7.83325 35H16.0208C16.8541 35 17.6458 35.2083 18.3958 35.625C19.1458 36.0417 19.7499 36.6042 20.2083 37.3125C21.4166 38.9375 22.9062 40.2083 24.677 41.125C26.4478 42.0417 28.3333 42.5 30.3333 42.5C32.3749 42.5 34.2812 42.0417 36.052 41.125C37.8228 40.2083 39.2916 38.9375 40.4583 37.3125C40.9999 36.6042 41.6353 36.0417 42.3645 35.625C43.0937 35.2083 43.8541 35 44.6458 35H52.8333C54.2499 35 55.4374 35.4792 56.3958 36.4375C57.3541 37.3958 57.8333 38.5833 57.8333 40V50H40.3333V44.3125C38.8749 45.3542 37.302 46.1458 35.6145 46.6875C33.927 47.2292 32.1666 47.5 30.3333 47.5C28.5416 47.5 26.7916 47.2188 25.0833 46.6562C23.3749 46.0938 21.7916 45.2917 20.3333 44.25V50H2.83325ZM10.3333 32.5C8.24992 32.5 6.47909 31.7708 5.02075 30.3125C3.56242 28.8542 2.83325 27.0833 2.83325 25C2.83325 22.875 3.56242 21.0938 5.02075 19.6562C6.47909 18.2188 8.24992 17.5 10.3333 17.5C12.4583 17.5 14.2395 18.2188 15.677 19.6562C17.1145 21.0938 17.8333 22.875 17.8333 25C17.8333 27.0833 17.1145 28.8542 15.677 30.3125C14.2395 31.7708 12.4583 32.5 10.3333 32.5ZM50.3333 32.5C48.2499 32.5 46.4791 31.7708 45.0208 30.3125C43.5624 28.8542 42.8333 27.0833 42.8333 25C42.8333 22.875 43.5624 21.0938 45.0208 19.6562C46.4791 18.2188 48.2499 17.5 50.3333 17.5C52.4583 17.5 54.2395 18.2188 55.677 19.6562C57.1145 21.0938 57.8333 22.875 57.8333 25C57.8333 27.0833 57.1145 28.8542 55.677 30.3125C54.2395 31.7708 52.4583 32.5 50.3333 32.5Z" fill="#A974FF"/>
</svg>
