<svg width="40" height="40" viewBox="0 0 40 40" fill="none" xmlns="http://www.w3.org/2000/svg">
<path d="M30.625 36.792L32.5417 34.8753L25.125 27.4587L23.2083 29.3753C22.1806 30.4031 21.6667 31.6392 21.6667 33.0837C21.6667 34.5281 22.1806 35.7642 23.2083 36.792C24.2361 37.8198 25.4722 38.3337 26.9167 38.3337C28.3611 38.3337 29.5972 37.8198 30.625 36.792ZM34.875 32.542L36.7917 30.6253C37.8194 29.5975 38.3333 28.3614 38.3333 26.917C38.3333 25.4725 37.8194 24.2364 36.7917 23.2087C35.7639 22.1809 34.5278 21.667 33.0833 21.667C31.6389 21.667 30.4028 22.1809 29.375 23.2087L27.4583 25.1253L34.875 32.542ZM11.6667 15.0003H28.3333V11.667H11.6667V15.0003ZM20 7.08366C20.3611 7.08366 20.6597 6.9656 20.8958 6.72949C21.1319 6.49338 21.25 6.19477 21.25 5.83366C21.25 5.47255 21.1319 5.17394 20.8958 4.93783C20.6597 4.70171 20.3611 4.58366 20 4.58366C19.6389 4.58366 19.3403 4.70171 19.1042 4.93783C18.8681 5.17394 18.75 5.47255 18.75 5.83366C18.75 6.19477 18.8681 6.49338 19.1042 6.72949C19.3403 6.9656 19.6389 7.08366 20 7.08366ZM18.5417 35.0003H8.33333C7.41667 35.0003 6.63194 34.6739 5.97917 34.0212C5.32639 33.3684 5 32.5837 5 31.667V8.33366C5 7.41699 5.32639 6.63227 5.97917 5.97949C6.63194 5.32671 7.41667 5.00033 8.33333 5.00033H15.3333C15.6944 4.00033 16.2986 3.19477 17.1458 2.58366C17.9931 1.97255 18.9444 1.66699 20 1.66699C21.0556 1.66699 22.0069 1.97255 22.8542 2.58366C23.7014 3.19477 24.3056 4.00033 24.6667 5.00033H31.6667C32.5833 5.00033 33.3681 5.32671 34.0208 5.97949C34.6736 6.63227 35 7.41699 35 8.33366V18.542C33.8333 18.2642 32.6736 18.2434 31.5208 18.4795C30.3681 18.7156 29.3056 19.1531 28.3333 19.792V18.3337H11.6667V21.667H26.2083L22.875 25.0003H11.6667V28.3337H19.7917C19.1528 29.3059 18.7153 30.3684 18.4792 31.5212C18.2431 32.6739 18.2639 33.8337 18.5417 35.0003Z" fill="#A974FF"/>
</svg>
