<svg width="40" height="40" viewBox="0 0 40 40" fill="none" xmlns="http://www.w3.org/2000/svg">
<path d="M25.8333 33.2087L18.75 26.1253L21.0833 23.792L25.8333 28.542L35.25 19.1253L37.5833 21.4587L25.8333 33.2087ZM35 16.667H31.6667V8.33366H28.3333V13.3337H11.6667V8.33366H8.33333V31.667H18.3333V35.0003H8.33333C7.41667 35.0003 6.63194 34.6739 5.97917 34.0212C5.32639 33.3684 5 32.5837 5 31.667V8.33366C5 7.41699 5.32639 6.63227 5.97917 5.97949C6.63194 5.32671 7.41667 5.00033 8.33333 5.00033H15.2917C15.5972 4.0281 16.1944 3.22949 17.0833 2.60449C17.9722 1.97949 18.9444 1.66699 20 1.66699C21.1111 1.66699 22.1042 1.97949 22.9792 2.60449C23.8542 3.22949 24.4444 4.0281 24.75 5.00033H31.6667C32.5833 5.00033 33.3681 5.32671 34.0208 5.97949C34.6736 6.63227 35 7.41699 35 8.33366V16.667ZM20 8.33366C20.4722 8.33366 20.8681 8.17394 21.1875 7.85449C21.5069 7.53505 21.6667 7.13921 21.6667 6.66699C21.6667 6.19477 21.5069 5.79894 21.1875 5.47949C20.8681 5.16005 20.4722 5.00033 20 5.00033C19.5278 5.00033 19.1319 5.16005 18.8125 5.47949C18.4931 5.79894 18.3333 6.19477 18.3333 6.66699C18.3333 7.13921 18.4931 7.53505 18.8125 7.85449C19.1319 8.17394 19.5278 8.33366 20 8.33366Z" fill="#A974FF"/>
</svg>
