<svg width="61" height="60" viewBox="0 0 61 60" fill="none" xmlns="http://www.w3.org/2000/svg">
<path d="M18.1665 55C16.7915 55 15.6144 54.5104 14.6353 53.5312C13.6561 52.5521 13.1665 51.375 13.1665 50C13.1665 48.625 13.6561 47.4479 14.6353 46.4688C15.6144 45.4896 16.7915 45 18.1665 45C19.5415 45 20.7186 45.4896 21.6978 46.4688C22.6769 47.4479 23.1665 48.625 23.1665 50C23.1665 51.375 22.6769 52.5521 21.6978 53.5312C20.7186 54.5104 19.5415 55 18.1665 55ZM43.1665 55C41.7915 55 40.6144 54.5104 39.6353 53.5312C38.6561 52.5521 38.1665 51.375 38.1665 50C38.1665 48.625 38.6561 47.4479 39.6353 46.4688C40.6144 45.4896 41.7915 45 43.1665 45C44.5415 45 45.7186 45.4896 46.6978 46.4688C47.6769 47.4479 48.1665 48.625 48.1665 50C48.1665 51.375 47.6769 52.5521 46.6978 53.5312C45.7186 54.5104 44.5415 55 43.1665 55ZM13.6665 10H50.5415C51.4998 10 52.229 10.4271 52.729 11.2812C53.229 12.1354 53.2498 13 52.7915 13.875L43.9165 29.875C43.4582 30.7083 42.8436 31.3542 42.0728 31.8125C41.3019 32.2708 40.4582 32.5 39.5415 32.5H20.9165L18.1665 37.5H48.1665V42.5H18.1665C16.2915 42.5 14.8748 41.6771 13.9165 40.0312C12.9582 38.3854 12.9165 36.75 13.7915 35.125L17.1665 29L8.1665 10H3.1665V5H11.2915L13.6665 10Z" fill="#A974FF"/>
</svg>
