<svg width="40" height="40" viewBox="0 0 40 40" fill="none" xmlns="http://www.w3.org/2000/svg">
<path d="M18.3333 33.3337H10.8333C8.30551 33.3337 6.14579 32.4587 4.35413 30.7087C2.56246 28.9587 1.66663 26.8198 1.66663 24.292C1.66663 22.1253 2.3194 20.1948 3.62496 18.5003C4.93052 16.8059 6.63885 15.7225 8.74996 15.2503C9.4444 12.6948 10.8333 10.6253 12.9166 9.04199C15 7.45866 17.3611 6.66699 20 6.66699C23.25 6.66699 26.0069 7.79894 28.2708 10.0628C30.5347 12.3267 31.6666 15.0837 31.6666 18.3337C33.5833 18.5559 35.1736 19.3823 36.4375 20.8128C37.7014 22.2434 38.3333 23.917 38.3333 25.8337C38.3333 27.917 37.6041 29.6878 36.1458 31.1462C34.6875 32.6045 32.9166 33.3337 30.8333 33.3337H21.6666V21.417L24.3333 24.0003L26.6666 21.667L20 15.0003L13.3333 21.667L15.6666 24.0003L18.3333 21.417V33.3337Z" fill="#A974FF"/>
</svg>
