<svg width="40" height="40" viewBox="0 0 40 40" fill="none" xmlns="http://www.w3.org/2000/svg">
<path d="M10 35C8.16671 35 6.59726 34.3472 5.29171 33.0417C3.98615 31.7361 3.33337 30.1667 3.33337 28.3333C3.33337 26.5 3.98615 24.9306 5.29171 23.625C6.59726 22.3194 8.16671 21.6667 10 21.6667C10.6112 21.6667 11.1945 21.7431 11.75 21.8958C12.3056 22.0486 12.8195 22.2639 13.2917 22.5417L17.6667 18.125L13.125 13.5C12.625 13 12.257 12.4514 12.0209 11.8542C11.7848 11.2569 11.6667 10.6528 11.6667 10.0417C11.6667 8.73611 12.125 7.56944 13.0417 6.54167C13.9584 5.51389 15.1667 5 16.6667 5H23.3334C24.8334 5 26.0417 5.51389 26.9584 6.54167C27.875 7.56944 28.3334 8.73611 28.3334 10.0417C28.3334 10.6528 28.2153 11.2639 27.9792 11.875C27.7431 12.4861 27.375 13.0417 26.875 13.5417L22.3334 18.125L26.6667 22.5417C27.1389 22.2361 27.6598 22.0139 28.2292 21.875C28.7987 21.7361 29.3889 21.6667 30 21.6667C31.8334 21.6667 33.4028 22.3194 34.7084 23.625C36.0139 24.9306 36.6667 26.5 36.6667 28.3333C36.6667 30.1667 36.0139 31.7361 34.7084 33.0417C33.4028 34.3472 31.8334 35 30 35C28.1667 35 26.5973 34.3472 25.2917 33.0417C23.9862 31.7361 23.3334 30.1667 23.3334 28.3333C23.3334 27.7222 23.4167 27.125 23.5834 26.5417C23.75 25.9583 23.9862 25.4028 24.2917 24.875L20 20.5L15.7084 24.875C16.0139 25.4028 16.25 25.9583 16.4167 26.5417C16.5834 27.125 16.6667 27.7222 16.6667 28.3333C16.6667 30.1667 16.0139 31.7361 14.7084 33.0417C13.4028 34.3472 11.8334 35 10 35ZM16.6667 8.33333C16.1667 8.33333 15.7639 8.5 15.4584 8.83333C15.1528 9.16667 15 9.55556 15 10C15 10.2222 15.0417 10.4306 15.125 10.625C15.2084 10.8194 15.3334 11 15.5 11.1667L20 15.75L24.5 11.2083C24.6667 11.0417 24.7917 10.8542 24.875 10.6458C24.9584 10.4375 25 10.2222 25 10C25 9.55556 24.8473 9.16667 24.5417 8.83333C24.2362 8.5 23.8334 8.33333 23.3334 8.33333H16.6667Z" fill="#A974FF"/>
</svg>
