<svg width="61" height="60" viewBox="0 0 61 60" fill="none" xmlns="http://www.w3.org/2000/svg">
<path d="M41.9166 47.5C43.6666 47.5 45.1458 46.8958 46.3541 45.6875C47.5625 44.4792 48.1666 43 48.1666 41.25C48.1666 39.5 47.5625 38.0208 46.3541 36.8125C45.1458 35.6042 43.6666 35 41.9166 35C40.1666 35 38.6875 35.6042 37.4791 36.8125C36.2708 38.0208 35.6666 39.5 35.6666 41.25C35.6666 43 36.2708 44.4792 37.4791 45.6875C38.6875 46.8958 40.1666 47.5 41.9166 47.5ZM54.6666 57.5L47.9166 50.8125C47.0416 51.3542 46.0937 51.7708 45.0729 52.0625C44.052 52.3542 43 52.5 41.9166 52.5C38.7916 52.5 36.1354 51.4062 33.9479 49.2188C31.7604 47.0312 30.6666 44.375 30.6666 41.25C30.6666 38.125 31.7604 35.4688 33.9479 33.2812C36.1354 31.0938 38.7916 30 41.9166 30C45.0416 30 47.6979 31.0938 49.8854 33.2812C52.0729 35.4688 53.1666 38.125 53.1666 41.25C53.1666 42.375 53.0104 43.4479 52.6979 44.4688C52.3854 45.4896 51.9583 46.4375 51.4166 47.3125L58.1666 54L54.6666 57.5ZM13.1666 55C11.7916 55 10.6145 54.5104 9.63538 53.5312C8.65621 52.5521 8.16663 51.375 8.16663 50V10C8.16663 8.625 8.65621 7.44792 9.63538 6.46875C10.6145 5.48958 11.7916 5 13.1666 5H33.1666L48.1666 20V26.25C47.1666 25.8333 46.1458 25.5208 45.1041 25.3125C44.0625 25.1042 43 25 41.9166 25C39.5833 25 37.4062 25.4375 35.3854 26.3125C33.3645 27.1875 31.625 28.4167 30.1666 30H18.1666V35H26.9166C26.5833 35.7917 26.3229 36.6042 26.1354 37.4375C25.9479 38.2708 25.8125 39.125 25.7291 40H18.1666V45H26.1041C26.5625 47.0833 27.3958 48.9896 28.6041 50.7188C29.8125 52.4479 31.3541 53.875 33.2291 55H13.1666ZM30.6666 22.5H43.1666L30.6666 10V22.5Z" fill="#A974FF"/>
</svg>
