<svg width="61" height="60" viewBox="0 0 61 60" fill="none" xmlns="http://www.w3.org/2000/svg">
<path d="M13.1666 55C11.7916 55 10.6145 54.5104 9.63538 53.5312C8.65621 52.5521 8.16663 51.375 8.16663 50V21.8125C7.41663 21.3542 6.81246 20.7604 6.35413 20.0312C5.89579 19.3021 5.66663 18.4583 5.66663 17.5V10C5.66663 8.625 6.15621 7.44792 7.13538 6.46875C8.11454 5.48958 9.29163 5 10.6666 5H50.6666C52.0416 5 53.2187 5.48958 54.1979 6.46875C55.177 7.44792 55.6666 8.625 55.6666 10V17.5C55.6666 18.4583 55.4375 19.3021 54.9791 20.0312C54.5208 20.7604 53.9166 21.3542 53.1666 21.8125V50C53.1666 51.375 52.677 52.5521 51.6979 53.5312C50.7187 54.5104 49.5416 55 48.1666 55H13.1666ZM10.6666 17.5H50.6666V10H10.6666V17.5ZM23.1666 35H38.1666V30H23.1666V35Z" fill="#A974FF"/>
</svg>
