<svg width="40" height="40" viewBox="0 0 40 40" fill="none" xmlns="http://www.w3.org/2000/svg">
<path d="M6.66671 33.3337C5.75004 33.3337 4.96532 33.0073 4.31254 32.3545C3.65976 31.7017 3.33337 30.917 3.33337 30.0003V21.667H12.2917L15.1667 27.417C15.3056 27.7225 15.5139 27.9517 15.7917 28.1045C16.0695 28.2573 16.3612 28.3337 16.6667 28.3337C16.9723 28.3337 17.2639 28.2573 17.5417 28.1045C17.8195 27.9517 18.0278 27.7225 18.1667 27.417L23.3334 17.0837L25.1667 20.7503C25.3056 21.0559 25.5139 21.285 25.7917 21.4378C26.0695 21.5906 26.3612 21.667 26.6667 21.667H36.6667V30.0003C36.6667 30.917 36.3403 31.7017 35.6875 32.3545C35.0348 33.0073 34.25 33.3337 33.3334 33.3337H6.66671ZM3.33337 18.3337V10.0003C3.33337 9.08366 3.65976 8.29894 4.31254 7.64616C4.96532 6.99338 5.75004 6.66699 6.66671 6.66699H33.3334C34.25 6.66699 35.0348 6.99338 35.6875 7.64616C36.3403 8.29894 36.6667 9.08366 36.6667 10.0003V18.3337H27.7084L24.8334 12.5837C24.6945 12.2781 24.4862 12.0628 24.2084 11.9378C23.9306 11.8128 23.6389 11.7503 23.3334 11.7503C23.0278 11.7503 22.7362 11.8128 22.4584 11.9378C22.1806 12.0628 21.9723 12.2781 21.8334 12.5837L16.6667 22.917L14.8334 19.2503C14.6945 18.9448 14.4862 18.7156 14.2084 18.5628C13.9306 18.41 13.6389 18.3337 13.3334 18.3337H3.33337Z" fill="#A974FF"/>
</svg>
