<svg width="40" height="40" viewBox="0 0 40 40" fill="none" xmlns="http://www.w3.org/2000/svg">
<path d="M11.6667 35V31.6667H18.3333V26.5C16.9722 26.1944 15.7569 25.6181 14.6875 24.7708C13.6181 23.9236 12.8333 22.8611 12.3333 21.5833C10.25 21.3333 8.50694 20.4236 7.10417 18.8542C5.70139 17.2847 5 15.4444 5 13.3333V11.6667C5 10.75 5.32639 9.96528 5.97917 9.3125C6.63194 8.65972 7.41667 8.33333 8.33333 8.33333H11.6667V5H28.3333V8.33333H31.6667C32.5833 8.33333 33.3681 8.65972 34.0208 9.3125C34.6736 9.96528 35 10.75 35 11.6667V13.3333C35 15.4444 34.2986 17.2847 32.8958 18.8542C31.4931 20.4236 29.75 21.3333 27.6667 21.5833C27.1667 22.8611 26.3819 23.9236 25.3125 24.7708C24.2431 25.6181 23.0278 26.1944 21.6667 26.5V31.6667H28.3333V35H11.6667ZM11.6667 18V11.6667H8.33333V13.3333C8.33333 14.3889 8.63889 15.3403 9.25 16.1875C9.86111 17.0347 10.6667 17.6389 11.6667 18ZM28.3333 18C29.3333 17.6389 30.1389 17.0347 30.75 16.1875C31.3611 15.3403 31.6667 14.3889 31.6667 13.3333V11.6667H28.3333V18Z" fill="#A974FF"/>
</svg>
