<svg width="120" height="40" viewBox="0 0 120 40" fill="none" xmlns="http://www.w3.org/2000/svg">
<path d="M0.875513 3.74829H9.84952L29.7401 30.4788V22.3529C29.7401 17.1363 29.3388 12.9959 28.5363 9.9316C27.7519 6.8673 26.4934 5.24396 24.7606 5.06156V3.74829H36.7168V5.06156C33.3789 5.37164 31.71 10.8527 31.71 21.5048V40H30.4241L6.81259 8.0985V18.2763C6.81259 24.715 7.20474 29.4665 7.98906 32.5308C8.79161 35.5768 10.0866 37.2093 11.8741 37.4282V38.7414H0V37.4282C3.31965 36.9175 4.97948 30.6338 4.97948 18.5773V9.13817C4.97948 7.51482 4.66028 6.43867 4.02189 5.90971C3.40173 5.38076 2.35294 5.09804 0.875513 5.06156V3.74829Z" fill="#2247F2"/>
<path d="M51.8741 12.9685C55.3215 12.9685 58.0757 14.0538 60.1368 16.2243C62.2161 18.3767 63.2558 21.2494 63.2558 24.8427C63.2558 29.1108 61.8149 32.6311 58.933 35.4036C56.0511 38.1578 52.8773 39.5349 49.4118 39.5349C45.9462 39.5349 43.2102 38.4405 41.2038 36.2517C39.1974 34.0447 38.1943 31.181 38.1943 27.6607C38.1943 23.4656 39.617 19.9726 42.4624 17.1819C45.326 14.373 48.4633 12.9685 51.8741 12.9685ZM49.5486 15.1026C47.0679 15.1026 45.171 15.9872 43.8577 17.7565C42.5445 19.5258 41.8878 21.7419 41.8878 24.4049C41.8878 27.6881 42.9184 30.6247 44.9795 33.2148C47.0588 35.7866 49.4756 37.0725 52.2298 37.0725C54.2727 37.0725 55.9963 36.2243 57.4008 34.528C58.8235 32.8317 59.5349 30.6156 59.5349 27.8796C59.5349 25.3443 58.9694 23.0734 57.8386 21.067C56.7077 19.0424 55.4127 17.5467 53.9535 16.58C52.4943 15.5951 51.026 15.1026 49.5486 15.1026Z" fill="#2247F2"/>
<path d="M68.7551 17.0725C72.9503 14.3 76.8992 12.9138 80.6019 12.9138C82.3347 12.9138 83.5841 13.2969 84.3502 14.0629C85.1163 14.829 85.4902 16.124 85.472 17.948V35.0479C85.472 35.8687 85.8459 36.2791 86.5937 36.2791C87.3233 36.2791 88.6092 35.44 90.4514 33.762V35.4583C87.679 38.176 85.4172 39.5349 83.6662 39.5349C82.0976 39.5349 81.3133 38.6594 81.3133 36.9083V32.8591C79.0333 35.1938 77.0999 36.8901 75.513 37.948C73.9444 39.0059 72.4578 39.5349 71.0534 39.5349C69.6854 39.5349 68.518 39.0059 67.5513 37.948C66.5846 36.8719 66.1012 35.5677 66.1012 34.0356C66.1012 30.0775 71.1719 25.8094 81.3133 21.2312V17.948C81.3133 16.9448 81.0123 16.1149 80.4104 15.4583C79.8085 14.8016 78.9786 14.4733 77.9207 14.4733C76.1149 14.4733 74.5098 15.3488 73.1053 17.0999C71.7009 18.8509 70.8618 21.0306 70.5882 23.6389H68.7551V17.0725ZM81.6142 23.4473C78.2399 24.1404 75.5039 25.3352 73.4063 27.0315C71.3087 28.7095 70.2599 30.4332 70.2599 32.2025C70.2599 33.3333 70.6065 34.2362 71.2996 34.9111C72.0109 35.586 72.9321 35.9234 74.0629 35.9234C76.1605 35.9234 77.9298 34.8199 79.3707 32.6129C80.8299 30.3876 81.5777 27.3324 81.6142 23.4473Z" fill="#2247F2"/>
<path d="M100.492 25.3625V33.1601L100.465 33.7893C100.465 36.1605 101.87 37.3735 104.679 37.4282V38.7414H92.1751V37.4282C93.5978 37.3917 94.6466 37.0907 95.3215 36.5253C95.9964 35.9416 96.3338 34.8199 96.3338 33.1601V7.5513C96.3338 5.59964 95.6772 4.6238 94.3639 4.6238C93.8349 4.6238 93.1053 4.76972 92.1751 5.06156V3.74829L101.587 0V1.12175C100.857 1.35887 100.492 1.90606 100.492 2.76334V25.3625L105.28 21.3953L105.527 21.1217L106.758 20.0274C108.126 18.8235 108.81 17.7109 108.81 16.6895C108.81 15.5586 107.715 14.9749 105.527 14.9384V13.6799H118.358V14.9384C116.078 14.9749 113.297 16.3703 110.014 19.1245L104.46 23.7209L109.85 30.5609C113.425 35.1208 116.635 37.4099 119.48 37.4282V38.7414H111.053L100.492 25.3625Z" fill="#2247F2"/>
</svg>
